<svg xmlns="http://www.w3.org/2000/svg" width="36" height="26" viewBox="0 0 36 26">
    <path fill="#EBEBEB" d="M30.103 0c1.848 0 3.38 1.417 3.48 3.218l.006.187V14.21C35.034 15.434 36 17.274 36 19.325c-.002 2.7-1.649 5.133-4.173 6.166-2.441 1-5.238.5-7.169-1.258l-.197-.186H3.45c-1.848 0-3.346-1.447-3.444-3.25L0 20.61V3.405c-.002-.904.36-1.772 1.008-2.41C1.601.407 2.389.058 3.221.006L3.45 0h26.654zM25.28 15.411c-1.601 1.582-2.08 3.96-1.214 6.027.866 2.066 2.908 3.414 5.172 3.414 3.09-.004 5.595-2.477 5.598-5.53 0-2.237-1.363-4.253-3.455-5.11-2.092-.856-4.5-.383-6.101 1.199zm3.904.359c.287 0 .525.207.57.478l.008.093v2.497h2.528c.319 0 .578.256.578.57 0 .285-.21.52-.484.564l-.094.008H29.76v2.426c0 .315-.26.57-.578.57-.287 0-.526-.206-.57-.478l-.008-.092V19.98h-2.456c-.32 0-.578-.256-.578-.571 0-.284.21-.52.484-.563l.094-.008h2.456v-2.497c0-.316.259-.571.578-.571zM8.58 13.207l-7.425 4.26v3.143c-.008 1.207.935 2.2 2.135 2.289l.158.006h5.525l6.54-6.352-6.933-3.346zm14.793-2.688L10.623 22.905h12.912c-.666-1.07-1.052-2.262-1.052-3.575.004-2.739 1.695-5.19 4.252-6.201l.242-.09-3.603-2.52zm6.73-9.377H3.448c-.608-.003-1.193.234-1.624.66-.388.382-.622.888-.663 1.424l-.006.18v12.74l7.111-4.079c.136-.08.299-.098.448-.053l.087.034 7.583 3.65 6.524-6.334c.175-.17.436-.21.651-.11l.09.052 4.84 3.386c.252-.028.504-.042.756-.042 1.001-.002 1.988.217 2.89.638l.297.148V3.406c0-1.26-1.055-2.264-2.33-2.264zm-15.06 3.834c1.722 0 3.119 1.38 3.119 3.082s-1.397 3.081-3.12 3.081c-1.722-.002-3.117-1.38-3.12-3.081 0-1.702 1.397-3.082 3.12-3.082zm0 1.142c-1.085.001-1.963.869-1.964 1.94 0 .784.478 1.492 1.212 1.792.734.3 1.578.134 2.14-.42.561-.555.73-1.39.425-2.114-.304-.725-1.02-1.198-1.814-1.198z"/>
</svg>
