<svg xmlns="http://www.w3.org/2000/svg" width="16" height="15" viewBox="0 0 16 15">
    <path fill="#418FDE" fill-rule="evenodd" d="M14.767 1.039c.391.391.394 1.023.006 1.41L9.818 7.405l4.55 4.55c.389.388.386 1.02-.005 1.411l-.402.402c-.391.391-1.023.394-1.41.006L8 9.222l-4.55 4.55c-.388.389-1.02.386-1.411-.005l-.402-.402c-.391-.391-.393-1.023-.006-1.41l4.55-4.552L1.227 2.45c-.388-.388-.385-1.02.006-1.411l.402-.402C2.026.246 2.658.244 3.045.631L8 5.585 12.954.631c.388-.388 1.02-.385 1.411.006l.402.402z"/>
</svg>
