<svg xmlns="http://www.w3.org/2000/svg" width="25" height="18" viewBox="0 0 25 18">
    <path fill="#418FDE" stroke="#418FDE" stroke-width=".2" d="M24 1.336l-.001-.01-.002-.018c-.002-.027-.007-.053-.016-.079-.001-.003 0-.007-.002-.01l-.002-.005c-.012-.028-.026-.054-.045-.078l-.012-.015c-.018-.022-.038-.04-.06-.057l-.007-.005c-.025-.017-.052-.03-.08-.039l-.02-.006c-.03-.009-.06-.014-.092-.014H1.34c-.031 0-.062.005-.092.014l-.02.006c-.028.01-.055.022-.08.039l-.006.005c-.023.016-.043.035-.06.057-.005.005-.01.01-.013.015-.019.024-.033.05-.045.078l-.002.005-.002.01c-.009.026-.014.052-.016.079L1 1.326 1 1.336v15.327l.001.013c0 .012.002.024.004.036l.005.03.011.034.01.026c.006.012.012.023.019.033l.014.023.025.03.019.02.011.012.01.005c.027.022.057.039.088.051l.021.006c.03.01.062.016.095.017l.006.001h22.322l.006-.001c.032-.001.064-.007.095-.017.007-.002.014-.003.02-.006.031-.012.06-.03.087-.05.003-.003.007-.004.01-.006l.012-.012.02-.02.024-.03.014-.023c.007-.01.013-.021.018-.033l.01-.026c.005-.012.009-.023.012-.035l.005-.03c.002-.011.003-.023.003-.035l.002-.013L24 1.336zM8.967 8.29l3.31 2.826c.128.108.317.108.444 0l3.311-2.826 6.893 8.036H2.075L8.966 8.29zm-7.288 7.457V2.071l6.774 5.78-6.774 7.896zm14.868-7.896l6.774-5.78v13.676l-6.774-7.896zm6.197-6.178l-6.891 5.881-.004.003-.004.004-3.345 2.855L9.154 7.56l-.004-.004-.004-.003-6.892-5.881h20.49z"/>
</svg>
