<svg xmlns="http://www.w3.org/2000/svg" width="26" height="24" viewBox="0 0 26 24">
    <path fill="#418FDE" stroke="#418FDE" stroke-width=".2" d="M8.972 1l13.657.028C23.936 1.028 25 2.091 25 3.397h0v8.446c0 1.306-1.064 2.369-2.372 2.369h0-.428v3.995c0 .165-.102.313-.256.372-.047.018-.096.027-.144.027-.11 0-.219-.046-.296-.13h0L19.4 16.163v.045c0 1.306-1.064 2.369-2.372 2.369h0l-6.65.027-3.882 4.264c-.077.085-.186.131-.296.131-.048 0-.097-.009-.144-.027-.154-.06-.256-.207-.256-.372h0v-3.995H3.372C2.064 18.606 1 17.543 1 16.237h0V7.792c0-1.307 1.064-2.37 2.372-2.37h0L6.6 5.417V3.369C6.6 2.063 7.664 1 8.972 1h0zm8.056 5.193l-10.027.02h0H7l-3.627.008c-.868 0-1.573.705-1.573 1.57h0v8.446c0 .865.705 1.57 1.572 1.57H6.2c.221 0 .4.178.4.399h0v3.361l3.304-3.63c.075-.083.182-.13.294-.13h0l6.828-.029c.869 0 1.574-.704 1.574-1.57h0V7.764c0-.866-.705-1.57-1.572-1.57h0zM8.971 1.799c-.866 0-1.571.704-1.571 1.57h0v2.045l9.627-.02c1.309 0 2.373 1.063 2.373 2.37h0v7.212l2 2.197V13.81c0-.22.179-.399.4-.399h.828c.867 0 1.572-.704 1.572-1.57h0V3.397c0-.866-.705-1.57-1.572-1.57 0 0 0 0 0 0zM15.4 14.183c.221 0 .4.179.4.4 0 .22-.179.399-.4.399h0H5c-.221 0-.4-.179-.4-.4 0-.22.179-.399.4-.399h0zm0-2.397c.221 0 .4.179.4.4 0 .22-.179.399-.4.399h0H5c-.221 0-.4-.179-.4-.4 0-.22.179-.399.4-.399h0zM10.2 9.39c.221 0 .4.18.4.4 0 .22-.179.4-.4.4h0H5c-.221 0-.4-.18-.4-.4 0-.22.179-.4.4-.4h0z"/>
</svg>
