<svg xmlns="http://www.w3.org/2000/svg" width="24" height="24" viewBox="0 0 24 24">
    <path fill="#418FDE" stroke="#418FDE" stroke-width=".2" d="M4.285 1.185c.592-.356 1.36-.183 1.743.392h0l2.97 4.453c.373.566.25 1.323-.284 1.74h0L7.048 9.069c-.22.168-.283.472-.147.713h0l.135.247c.446.816 1.002 1.835 3.053 3.886 2.05 2.052 3.068 2.607 3.886 3.053h0l.247.136c.24.134.544.07.71-.15h0l1.298-1.668c.417-.533 1.175-.656 1.74-.283h0l4.453 2.97c.576.383.748 1.151.392 1.744h0l-1.12 1.861c-.344.585-.9 1.015-1.554 1.198-.562.152-1.142.227-1.724.225-2.528 0-6.206-1.329-11.147-6.27C1.06 10.518.555 6.301 1.225 3.858c.184-.653.613-1.21 1.198-1.554h0zm1.133.8c-.166-.25-.499-.324-.756-.17h0L2.8 2.932c-.423.248-.734.649-.868 1.12-.619 2.256-.106 6.196 5.857 12.16 5.963 5.963 9.903 6.476 12.159 5.857.47-.134.871-.445 1.118-.867h0l1.117-1.862c.155-.257.08-.59-.17-.757h0l-4.453-2.97c-.245-.161-.573-.108-.755.123h0l-1.297 1.667c-.387.508-1.09.652-1.646.34h0l-.241-.133c-.86-.468-1.928-1.05-4.055-3.177-2.126-2.127-2.709-3.196-3.177-4.055h0l-.133-.24c-.312-.558-.167-1.26.34-1.648h0l1.667-1.297c.231-.181.285-.51.123-.755h0l-1.354-2.03zm8.048 1.95c3.845.004 6.961 3.12 6.966 6.966 0 .202-.164.367-.367.367-.202 0-.367-.165-.367-.367-.003-3.44-2.792-6.23-6.232-6.233-.202 0-.367-.164-.367-.367 0-.202.165-.366.367-.366zm0 2.2c2.63.003 4.763 2.135 4.766 4.766 0 .202-.164.367-.367.367-.202 0-.366-.165-.366-.367-.003-2.226-1.807-4.03-4.033-4.033-.202 0-.367-.164-.367-.367 0-.202.165-.366.367-.366zm0 2.2c1.417.001 2.565 1.15 2.566 2.566 0 .202-.164.367-.366.367-.203 0-.367-.165-.367-.367-.001-1.012-.821-1.832-1.833-1.833-.202 0-.367-.164-.367-.367 0-.202.165-.367.367-.367z"/>
</svg>
