<svg xmlns="http://www.w3.org/2000/svg" width="16" height="16" viewBox="0 0 16 16">
    <g fill="#FFF" stroke="#F9F9F9" stroke-width=".5">
        <path d="M7.142 0C3.198 0 0 3.198 0 7.142c0 3.945 3.198 7.143 7.142 7.143 3.945 0 7.143-3.198 7.143-7.143C14.28 3.2 11.085.005 7.142 0zm0 13.824c-3.69 0-6.681-2.991-6.681-6.682C.46 3.452 3.452.461 7.142.461s6.682 2.991 6.682 6.681c-.004 3.689-2.993 6.678-6.682 6.682z" transform="translate(1 1)"/>
        <path d="M10.666 4.56L5.99 9.236 3.62 6.864c-.092-.088-.237-.086-.326.006-.086.09-.086.23 0 .32l2.535 2.534c.09.09.235.09.325 0l4.839-4.838c.088-.091.086-.237-.006-.326-.09-.086-.23-.086-.32 0z" transform="translate(1 1)"/>
    </g>
</svg>
