<svg xmlns="http://www.w3.org/2000/svg" width="11" height="13" viewBox="0 0 11 13">
    <path fill="#FFF" d="M7.18 11.857C6.896 12.53 6.25 13 5.5 13c-.75 0-1.396-.47-1.68-1.143zM5.5 0c.607 0 1.1.513 1.1 1.143v.55c1.554.49 2.689 1.993 2.689 3.766v.834c0 1.558.571 3.034 1.609 4.158.102.11.13.273.073.413-.058.14-.19.232-.338.232H.367c-.147 0-.28-.091-.338-.232-.057-.14-.029-.303.073-.413 1.038-1.124 1.61-2.6 1.61-4.158V5.46c0-1.773 1.134-3.275 2.688-3.766v-.55C4.4.513 4.893 0 5.5 0zm0 .762c-.202 0-.367.17-.367.38v.4c.121-.012.243-.019.367-.019s.246.007.367.019v-.4c0-.21-.165-.38-.367-.38z"/>
</svg>
