<svg xmlns="http://www.w3.org/2000/svg" width="24" height="26" viewBox="0 0 24 26">
    <path fill="#616161" d="M23.465 7.774L10.391.226C10.175.1 9.904.167 9.786.373l-.86 1.49c-.247.393-.397 1.13-.449 2.198-.006.134-.06.262-.15.358-2.456 2.613-4.302 5.81-5.337 9.243-.038.127-.121.237-.235.31-.898.578-1.462 1.077-1.678 1.484l-.861 1.492c-.119.206-.04.474.175.598l13.074 7.549c.216.124.487.058.606-.147l.86-1.49c.246-.393.396-1.131.448-2.198.006-.135.06-.262.15-.359 2.457-2.613 4.302-5.809 5.337-9.243.038-.126.122-.236.235-.31.898-.577 1.462-1.076 1.678-1.484l.862-1.492c.118-.206.04-.473-.176-.598zm-9.96 16.35L1.211 17.027l.43-.745 12.294 7.097-.43.745zM3.846 13.94c.999-3.313 2.779-6.396 5.148-8.917.225-.24.358-.554.374-.885.028-.587.091-1.082.178-1.42L21.73 9.753c-.25.244-.646.546-1.14.864-.28.18-.485.452-.58.766-.998 3.312-2.778 6.396-5.148 8.917-.225.239-.357.553-.373.885-.029.587-.092 1.081-.178 1.419L2.126 15.568c.25-.244.646-.546 1.14-.863.28-.18.486-.452.58-.766zm18.369-4.9L9.92 1.94l.43-.745 12.294 7.098-.43.745z"/>
</svg>
