<svg xmlns="http://www.w3.org/2000/svg" width="21" height="18" viewBox="0 0 21 18">
    <path fill="#616161" d="M10.913 0c.567 0 1.111.383 1.49 1.03l8.223 14.357c.354.648.402 1.319.118 1.822-.307.503-.898.791-1.63.791H2.76c-.756 0-1.347-.288-1.63-.79-.307-.504-.26-1.175.118-1.823L9.425 1.031C9.779.383 10.323 0 10.913 0zm0 1.007c-.212 0-.449.191-.638.527L2.1 15.891c-.19.335-.237.623-.118.815.094.168.378.287.756.287H19.09c.378 0 .638-.096.756-.287.118-.192.07-.48-.118-.815L11.55 1.534c-.189-.336-.425-.527-.638-.527zm0 12.511c.483 0 .875.397.875.887s-.392.887-.875.887-.874-.397-.874-.887.391-.887.874-.887zm0-8.796c.284 0 .497.215.497.503v6.663c0 .288-.213.503-.497.503-.283 0-.496-.215-.496-.503V5.225c0-.288.213-.503.496-.503z"/>
</svg>
