<svg xmlns="http://www.w3.org/2000/svg" width="21" height="24" viewBox="0 0 21 24">
    <path fill="#616161" stroke="#616161" stroke-width=".1" d="M20.907 2.912l-.038-.394c-.076-.81-.68-1.432-1.437-1.494l-.303-.02c-.907-.042-1.796.331-2.439 1.037l-3.025 3.3-9.908-.022c-.832 0-1.645.374-2.25 1.038l-.416.457c-.132.145-.19.394-.151.601.056.208.189.374.378.436l7.885 2.366-1.835 2.013-3.327.124c-.34 0-.662.146-.908.436l-.321.353c-.133.145-.19.373-.152.581.057.207.19.353.36.436l4.235 1.764 1.702 4.814c.075.208.246.353.435.374.189.02.359-.042.491-.208l.34-.373c.228-.25.36-.582.398-.997l.113-3.673 1.853-1.992 2.137 8.674c.056.208.208.374.397.436.057.021.094.021.151.021.151 0 .303-.062.416-.187l.416-.456c.605-.664.945-1.557.945-2.49V8.992l2.931-3.238c.7-.747 1.04-1.805.927-2.843zM19.45 5.174l-3.063 3.362c-.076.083-.114.187-.114.29v11.04c0 .727-.264 1.39-.718 1.91l-.19.207-2.25-8.985c-.037-.146-.132-.25-.264-.29-.038 0-.057-.022-.095-.022-.094 0-.189.042-.264.125l-2.42 2.615c-.076.083-.114.166-.114.29l-.114 3.818c0 .125-.037.312-.17.436l-.132.146-1.645-4.67c-.038-.103-.114-.186-.227-.228l-4.103-1.722.113-.125c.057-.062.208-.187.397-.187l3.498-.124c.095 0 .19-.042.246-.125l2.402-2.635c.094-.104.132-.25.094-.394-.038-.146-.132-.25-.265-.29l-8.206-2.47.19-.208c.453-.498 1.077-.788 1.72-.788l10.06.02c.094 0 .188-.041.264-.124l3.139-3.424c.491-.54 1.172-.83 1.872-.789l.302.02c.378.022.68.354.719.748l.037.394c.076.81-.17 1.598-.7 2.18z"/>
</svg>
