<svg xmlns="http://www.w3.org/2000/svg" width="20" height="24" viewBox="0 0 20 24">
    <path fill="#616161" d="M11.78 13.512c.954 0 1.81.301 2.578.863.257.187.321.446.168.654-.155.211-.409.23-.674.034-.676-.5-1.44-.713-2.272-.71-.29.002-2.844.005-4.186.006H6.58c-.728.009-1.462-.075-2.178.124-1.479.41-2.498 1.66-2.621 3.216-.01.114-.008.229-.008.343v4.75h2.114v-.477l-.002-4.012c0-.088-.01-.18.015-.262.064-.207.212-.32.435-.306.224.014.359.144.388.36.02.147.003.298.003.485l.025.855v3.369h.272c1.566 0 3.132.002 4.698-.003.24 0 .417.079.487.314.082.272-.12.524-.423.529-.502.007-1.004.004-1.505.004l-6.81-.002c-.405 0-.54-.133-.54-.534 0-1.751-.002-3.502.001-5.253.005-2.154 1.615-3.997 3.753-4.3.182-.025.367-.045.55-.046 2.183-.003 4.365-.003 6.547-.001zm7.195 2.533c.4 0 .54.138.54.535l-.003 6.541c0 .384-.14.524-.522.525h-7.386c-.402 0-.537-.134-.537-.536v-6.542c0-.386.136-.522.522-.522h7.386zm-4.953.858H11.92v5.88h6.737v-5.88h-2.101v1.145c-.002.387-.138.528-.518.529-.502.001-1.003.001-1.504 0-.367-.002-.508-.141-.511-.51-.003-.385 0-.77 0-1.164zm1.68 0h-.82v.814h.82v-.815zM8.897.018c2.242.214 3.755 1.887 4.071 3.654.076.423.096.855.156 1.28.011.077.074.177.14.211.51.26.744.679.744 1.237 0 .333.002.669-.033 1-.044.413-.29.7-.642.913-.088.053-.178.17-.192.27-.31 2.161-1.853 3.776-4.004 4.057-2.677.35-4.812-1.51-5.198-3.825-.044-.263-.097-.467-.375-.618-.357-.194-.516-.561-.521-.977-.002-.159 0-.317 0-.475 0-.15-.002-.3 0-.449.007-.48.217-.85.636-1.077.164-.088.215-.188.226-.362.05-.781.142-1.55.493-2.273C5.277.774 7.175-.145 8.896.02zm4.247 6.101c-.045.02-.056.021-.06.027-.015.022-.03.043-.04.067-.402.95-1.121 1.392-2.15 1.384-1.503-.012-3.008-.033-4.511.007-1.14.03-1.958-.38-2.4-1.457-.002-.005-.015-.007-.062-.028-.049.417-.086.822.02 1.22.025.095.157.193.261.23.494.177.496.17.539.683.007.088.023.174.032.262.244 2.134 2.384 3.677 4.481 3.231 1.787-.38 3.008-1.83 3.08-3.656.013-.335.103-.415.447-.504.129-.034.305-.136.338-.244.12-.396.072-.804.025-1.222zm-8.32-.29c.109.527.585.912 1.165.916 1.696.01 3.392.01 5.088 0 .553-.003 1.007-.368 1.162-.913C9.75 5.38 7.29 5.39 4.823 5.831zM8.3.848C6.124 1 4.668 2.823 4.806 4.959c2.471-.434 4.943-.423 7.434-.004.093-2.75-2.005-4.244-3.94-4.108z"/>
</svg>
