<svg xmlns="http://www.w3.org/2000/svg" width="20" height="19" viewBox="0 0 20 19">
    <path fill="#616161" d="M10.428 0c2.538 0 4.923.988 6.718 2.782 1.794 1.795 2.782 4.18 2.782 6.718 0 2.538-.988 4.923-2.782 6.718C15.35 18.012 12.966 19 10.428 19c-2.537 0-4.923-.988-6.717-2.782C1.916 14.423.928 12.038.928 9.5c0-2.538.988-4.923 2.783-6.718C5.505.988 7.89 0 10.428 0zm0 1.113c-4.624 0-8.387 3.763-8.387 8.387 0 4.624 3.763 8.387 8.387 8.387 4.625 0 8.387-3.763 8.387-8.387 0-4.624-3.762-8.387-8.387-8.387zm0 2.464c.308 0 .557.25.557.557v1.232h1.232c.307 0 .557.25.557.557 0 .307-.25.556-.557.556H9.832c-.68 0-1.232.553-1.232 1.232 0 .68.553 1.232 1.232 1.232h1.192c1.294 0 2.346 1.052 2.346 2.346 0 1.293-1.052 2.345-2.346 2.345h-.04v1.232c0 .307-.248.557-.556.557-.307 0-.556-.25-.556-.557v-1.232H8.64c-.308 0-.557-.25-.557-.557 0-.307.25-.556.557-.556h2.384c.68 0 1.232-.553 1.232-1.232 0-.68-.552-1.232-1.232-1.232H9.832c-1.293 0-2.345-1.052-2.345-2.346 0-1.293 1.052-2.345 2.345-2.345h.04V4.134c0-.307.249-.557.556-.557z"/>
</svg>
