<svg xmlns="http://www.w3.org/2000/svg" width="20" height="20" viewBox="0 0 20 20">
    <g fill="#616161">
        <path d="M13.58 9.041H5.056c-.16 0-.294.133-.294.293 0 .16.133.293.294.293h8.522c.161 0 .295-.133.295-.293 0-.16-.134-.293-.295-.293zM9.334 10.74c-.612 0-1.114.501-1.114 1.11 0 .61.498 1.11 1.114 1.11.596 0 1.087-.5 1.087-1.11 0-.609-.487-1.11-1.087-1.11zm0 1.63c-.294 0-.526-.23-.526-.523 0-.293.232-.524.526-.524.27 0 .498.242.498.524 0 .28-.227.523-.498.523zM9.362 7.912c.278 0 .549-.105.757-.309 0-.004.004-.007.008-.011.416-.454.396-1.15-.04-1.555-.408-.434-1.102-.454-1.561-.04-.004 0-.008.004-.012.008-.424.426-.412 1.126.031 1.567.228.227.526.34.817.34zM8.93 6.423c.22-.195.55-.187.734.02l.02.02c.203.183.211.511.015.73-.196.192-.522.176-.734-.035-.106-.106-.165-.242-.168-.387-.004-.133.043-.258.133-.348z" transform="translate(.928 1)"/>
        <path stroke="#616161" stroke-width=".6" d="M18.555 5.02c.11-.116.11-.296-.004-.41L14.046.125c-.055-.055-.13-.086-.208-.086-.078 0-.153.031-.208.086-.239.234-.565.367-.918.367-.353 0-.678-.129-.918-.367-.055-.055-.13-.086-.208-.086-.078 0-.153.031-.208.086L.086 11.37c-.114.113-.114.3 0 .414.498.496.498 1.332 0 1.829-.114.113-.114.3 0 .414l4.504 4.485c.114.114.299.114.412.004.522-.492 1.346-.496 1.84-.004.06.059.134.086.209.086h0c.074 0 .149-.027.207-.086L18.551 7.3c.113-.114.113-.293.004-.41-.503-.524-.503-1.345 0-1.868zm-.609 2.048L7.035 17.907c-.651-.465-1.55-.461-2.217.004L.694 13.804c.467-.652.467-1.559 0-2.215L11.602.727c.318.23.702.351 1.11.351.408 0 .793-.125 1.11-.351l4.124 4.106c-.474.672-.474 1.567 0 2.235z" transform="translate(.928 1)"/>
        <path stroke="#616161" stroke-width=".6" d="M14.69 3.552l-2.22 2.242c-.115.114-.11.301.003.415.059.058.133.085.208.085h0c.078 0 .153-.03.208-.09l2.22-2.242c.114-.113.11-.301-.003-.414-.114-.114-.302-.11-.416.004zM5.783 12.46l-2.252 2.211c-.118.114-.118.301-.004.415.055.058.134.086.208.086.075 0 .15-.028.208-.082l2.252-2.212c.118-.113.118-.3.004-.414-.114-.117-.302-.117-.416-.004z" transform="translate(.928 1)"/>
    </g>
</svg>
