<svg xmlns="http://www.w3.org/2000/svg" width="11" height="12" viewBox="0 0 11 12">
    <path fill="#616161" d="M8.572.069c.069-.067.172-.087.262-.051.09.036.148.122.148.216v5.532h1.778c.132 0 .24.105.24.234v4.781C11 11.453 10.44 12 9.751 12H1.25C.56 12 0 11.453 0 10.781V.241C-.002.178.022.115.072.067c.094-.09.245-.09.338.002l.68.664.68-.664c.094-.092.246-.092.34 0l.68.664.681-.664c.094-.092.246-.092.34 0l.68.664.68-.664c.094-.092.246-.092.34 0l.68.664.68-.664c.095-.092.247-.092.34 0l.68.664zm-1.53.497l-.68.664c-.094.091-.247.091-.34 0l-.68-.664-.681.664c-.094.091-.246.091-.34 0l-.68-.664-.68.664c-.094.091-.246.091-.34 0L1.94.566l-.681.664c-.094.091-.246.091-.34 0L.48.8v9.981c0 .414.345.75.769.75h7.519c-.166-.207-.266-.467-.266-.75V.8l-.44.43c-.094.091-.246.091-.34 0l-.68-.664zm3.478 5.668H8.983v4.547c0 .414.344.75.768.75.424 0 .769-.336.769-.75V6.234zM7.026 9.422c.132 0 .24.105.24.234 0 .13-.108.235-.24.235H3.22c-.133 0-.24-.105-.24-.235s.107-.234.24-.234zm-5.07 0c.064 0 .126.025.17.069.045.043.07.104.07.165 0 .062-.025.122-.07.166-.044.044-.106.069-.17.069-.063 0-.124-.025-.17-.069-.044-.044-.07-.104-.07-.166 0-.061.026-.122.07-.165.046-.044.107-.07.17-.07zm5.07-1.547c.132 0 .24.105.24.234 0 .13-.108.235-.24.235H3.22c-.133 0-.24-.105-.24-.235 0-.129.107-.234.24-.234zm-5.07 0c.064 0 .126.025.17.069.045.043.07.104.07.165 0 .062-.025.123-.07.166-.044.044-.106.069-.17.069-.063 0-.124-.025-.17-.069-.044-.043-.07-.104-.07-.166 0-.061.026-.122.07-.165.046-.044.107-.069.17-.069zm5.07-1.547c.132 0 .24.105.24.235s-.108.234-.24.234H3.22c-.133 0-.24-.105-.24-.234 0-.13.107-.235.24-.235zm-5.07 0c.064 0 .126.025.17.069.045.044.07.104.07.166 0 .061-.025.122-.07.165-.044.044-.106.069-.17.069-.063 0-.124-.025-.17-.069-.044-.043-.07-.104-.07-.165 0-.062.026-.122.07-.166.046-.044.107-.069.17-.069zm2.535-4.16c.133 0 .24.105.24.235v.158c.387.097.673.419.673.801 0 .13-.108.234-.24.234-.133 0-.24-.105-.24-.234 0-.2-.194-.361-.433-.361-.238 0-.432.162-.432.361 0 .2.194.361.432.361.503 0 .913.372.913.83 0 .382-.286.705-.673.8v.192c0 .13-.107.234-.24.234-.132 0-.24-.105-.24-.234v-.191c-.387-.096-.672-.419-.672-.8 0-.13.107-.235.24-.235.132 0 .24.105.24.234 0 .2.194.361.432.361.239 0 .432-.162.432-.36 0-.2-.193-.362-.432-.362-.503 0-.912-.372-.912-.83 0-.382.285-.704.672-.8v-.16c0-.129.108-.234.24-.234zm2.413 1.555c.133 0 .24.105.24.235 0 .129-.107.234-.24.234h-.468c-.133 0-.24-.105-.24-.234 0-.13.107-.235.24-.235zm-4.358 0c.133 0 .24.105.24.235 0 .129-.107.234-.24.234h-.468c-.132 0-.24-.105-.24-.234 0-.13.108-.235.24-.235z"/>
</svg>
