<?xml version="1.0" encoding="UTF-8"?>
<svg width="459px" height="331px" viewBox="0 0 459 331" version="1.1" xmlns="http://www.w3.org/2000/svg" xmlns:xlink="http://www.w3.org/1999/xlink">
    <!-- Generator: Sketch 57.1 (83088) - https://sketch.com -->
    <title>moto_azul@2x</title>
    <desc>Created with Sketch.</desc>
    <g id="Page-1" stroke="none" stroke-width="1" fill="none" fill-rule="evenodd">
        <path d="M260.33,0 C264.473,0 267.83,3.358 267.83,7.5 L267.83,7.5 L267.83,18.304 L280.923,18.304 C284.451,18.304 287.502,20.763 288.252,24.211 L288.252,24.211 L294.673,53.746 C299.094,49.037 304.797,45.483 311.322,43.683 L311.322,43.683 L323.546,40.311 C325.798,39.689 328.22,40.154 330.084,41.574 C331.946,42.993 333.04,45.2 333.04,47.541 L333.04,47.541 L333.04,111.075 C351.034,132.45 369.602,158.578 372.646,178.319 C377.062,177.667 381.577,177.324 386.172,177.324 C413.595,177.324 439.412,189.419 457.003,210.508 C458.296,212.057 458.91,214.063 458.707,216.072 C458.502,218.079 457.497,219.92 455.918,221.178 L455.918,221.178 L437.4,235.929 C443.739,245.575 447.442,257.101 447.442,269.481 C447.442,303.265 419.956,330.75 386.172,330.75 C357.745,330.75 333.782,311.287 326.896,284.989 L326.896,284.989 L153.676,284.989 C146.791,311.288 122.827,330.75 94.4,330.75 C60.616,330.75 33.131,303.265 33.131,269.481 C33.131,268.93 33.151,268.38 33.166,267.829 L33.166,267.829 L7.5,267.829 C3.357,267.829 2.84217094e-14,264.471 2.84217094e-14,260.329 C2.84217094e-14,238.828 9.119,214.956 27.105,189.377 C37.253,174.944 47.314,164.21 51.626,159.825 C53.292,139.548 70.315,123.555 91.014,123.555 L91.014,123.555 L199.228,123.555 C209.673,123.555 219.131,129.324 223.91,138.611 C228.633,147.788 227.895,158.682 222.02,167.14 C222,167.17 220.465,168.889 220.442,168.908 C201.414,184.369 191.363,197.942 190.57,209.25 C190.124,215.609 192.662,221.667 198.329,227.77 C211.193,241.623 238.076,247.334 265.217,241.977 C290.643,236.961 309.713,223.592 316.23,206.216 C320.694,194.311 318.718,178.83 310.357,160.203 C302.606,142.934 290.853,126.515 282.358,115.781 C281.004,114.07 279.856,112.244 278.91,110.336 L278.91,110.336 L265.878,124.661 C264.398,126.288 262.366,127.114 260.328,127.114 C258.527,127.114 256.721,126.47 255.283,125.162 C252.219,122.375 251.995,117.631 254.782,114.567 L254.782,114.567 L276.365,90.841 C277.49,85.145 280.163,79.973 284.116,75.799 L284.116,75.799 L274.878,33.304 L267.83,33.304 L267.83,45.253 C267.83,49.395 264.473,52.753 260.33,52.753 C256.187,52.753 252.83,49.395 252.83,45.253 L252.83,45.253 L252.83,7.5 C252.83,3.358 256.187,0 260.33,0 Z M386.172,223.213 C360.659,223.213 339.902,243.969 339.902,269.482 C339.902,294.995 360.659,315.751 386.172,315.751 C411.685,315.751 432.442,294.995 432.442,269.482 C432.442,243.969 411.685,223.213 386.172,223.213 Z M64.156,267.83 L48.165,267.83 C48.146,268.379 48.13,268.93 48.13,269.482 C48.13,294.995 68.886,315.751 94.399,315.751 C119.912,315.751 140.669,294.994 140.668,269.482 C140.668,268.93 140.652,268.38 140.633,267.83 L140.633,267.83 L124.641,267.83 C124.67,268.378 124.687,268.929 124.687,269.482 C124.687,286.184 111.099,299.771 94.398,299.771 C77.697,299.771 64.11,286.184 64.11,269.482 C64.11,268.929 64.127,268.378 64.156,267.83 L64.156,267.83 Z M386.172,239.193 C402.873,239.193 416.46,252.781 416.46,269.482 C416.46,286.183 402.873,299.77 386.172,299.77 C369.471,299.77 355.884,286.183 355.884,269.482 C355.884,252.78 369.471,239.193 386.172,239.193 Z M386.172,254.193 C377.742,254.193 370.884,261.052 370.884,269.482 C370.884,277.912 377.742,284.77 386.172,284.77 C394.602,284.77 401.46,277.911 401.46,269.482 C401.46,261.051 394.602,254.193 386.172,254.193 Z M109.597,267.83 L79.202,267.83 C79.144,268.375 79.111,268.926 79.111,269.482 C79.111,277.912 85.97,284.771 94.399,284.771 C102.83,284.771 109.688,277.912 109.688,269.482 C109.688,268.926 109.656,268.375 109.597,267.83 L109.597,267.83 Z M196.223,170.589 L62.092,170.589 C53.344,179.574 19.718,216.236 15.447,252.831 L15.447,252.831 L17.67,252.831 C19.981,244.89 25.294,230.424 36.161,216.292 C50.849,197.188 78.727,175.144 128.148,178.62 C148.762,180.069 162.361,186.716 168.565,198.375 C178.459,216.965 166.895,242.319 155.283,262.696 C155.531,264.936 155.669,267.205 155.669,269.482 C155.669,269.652 155.657,269.82 155.656,269.99 L155.656,269.99 L294.026,269.99 C294.025,269.82 294.014,269.651 294.013,269.483 C294.013,261.653 294.998,254.049 296.845,246.785 C288.35,251.233 278.672,254.612 268.119,256.694 C235.567,263.116 203.857,255.77 187.336,237.978 C178.811,228.797 174.865,218.779 175.607,208.202 C176.444,196.269 183.221,183.868 196.223,170.589 L196.223,170.589 Z M386.171,192.323 C343.626,192.323 309.013,226.936 309.013,269.481 C309.013,269.651 309.024,269.819 309.025,269.989 L309.025,269.989 L324.915,269.989 C324.913,269.819 324.902,269.651 324.902,269.481 C324.902,235.697 352.388,208.212 386.172,208.212 C402.181,208.212 416.77,214.391 427.696,224.481 L427.696,224.481 L440.275,214.46 C425.884,200.308 406.556,192.323 386.171,192.323 Z M127.096,193.582 C92.993,191.182 66.51,201.748 48.404,224.98 C40.494,235.128 35.906,245.659 33.426,252.829 L33.426,252.829 L143.619,252.829 C156.111,230.241 160.05,214.302 155.325,205.421 C151.709,198.628 142.212,194.645 127.096,193.582 Z M292.692,89.289 C291.752,91.001 291.136,92.893 290.887,94.893 C290.365,99.068 291.513,103.18 294.118,106.471 C325.374,145.964 333.936,174.35 333.513,193.896 C340.947,188.701 349.178,184.575 357.984,181.739 C355.803,157.451 314.461,111.201 292.692,89.289 Z M199.228,138.554 L155.715,138.554 L155.715,155.587 L211.271,155.587 C212.46,152.319 212.244,148.722 210.572,145.474 C208.342,141.141 204.101,138.554 199.228,138.554 L199.228,138.554 Z M140.715,138.554 L91.014,138.554 C80.101,138.554 70.829,145.717 67.652,155.587 L67.652,155.587 L140.715,155.587 L140.715,138.554 Z M318.039,57.39 L315.31,58.143 C307.175,60.387 301.25,67.301 300.086,75.487 C303.781,79.126 310.327,85.711 318.039,94.076 L318.039,94.076 L318.039,57.39 Z" id="moto_azul" fill="#418FDE" fill-rule="nonzero"></path>
    </g>
</svg>