<svg xmlns="http://www.w3.org/2000/svg" width="11" height="12" viewBox="0 0 11 12">
    <path fill="#616161" d="M10.995 1.36c-.001-.007-.006-.012-.008-.019-.004-.011-.009-.022-.015-.032-.007-.012-.015-.023-.025-.034l-.025-.024c-.01-.008-.023-.016-.036-.022-.01-.006-.022-.01-.034-.015-.014-.004-.03-.007-.044-.008L10.78 1.2H9.67C9.615.504 9.26 0 8.8 0s-.814.504-.87 1.2h-.46C7.415.504 7.06 0 6.6 0s-.814.504-.87 1.2h-.46C5.215.504 4.86 0 4.4 0s-.814.504-.87 1.2h-.46C3.015.504 2.66 0 2.2 0s-.814.504-.87 1.2H.22c-.121 0-.22.09-.22.2v10.4c0 .11.099.2.22.2h10.56c.121 0 .22-.09.22-.2v-.6l-.005-9.84zM8.8.4c.159 0 .38.306.43.8H8.37c.048-.494.27-.8.429-.8zM6.6.4c.159 0 .38.306.43.8H6.17c.048-.494.27-.8.429-.8zM4.4.4c.159 0 .38.306.43.8H3.97c.048-.494.27-.8.429-.8zM2.2.4c.159 0 .38.306.43.8H1.77c.048-.494.27-.8.429-.8zM.44 1.6h.89c.056.696.411 1.2.87 1.2.121 0 .22-.09.22-.2 0-.11-.099-.2-.22-.2-.159 0-.38-.306-.43-.8h1.76c.057.696.411 1.2.87 1.2.121 0 .22-.09.22-.2 0-.11-.099-.2-.22-.2-.159 0-.38-.306-.43-.8h1.76c.057.696.411 1.2.87 1.2.121 0 .22-.09.22-.2 0-.11-.099-.2-.22-.2-.159 0-.38-.306-.43-.8h1.76c.057.696.411 1.2.87 1.2.121 0 .22-.09.22-.2 0-.11-.099-.2-.22-.2-.159 0-.38-.306-.43-.8h2.19v2H.44v-2zm10.12 10H.44V4h10.12v7.6z"/>
</svg>
