<svg xmlns="http://www.w3.org/2000/svg" width="16" height="16" viewBox="0 0 16 16">
    <g fill="#FFF">
        <path d="M15.118 13.66l-2.388-2.387c.331-.574.52-1.24.52-1.948 0-1.046-.412-1.997-1.083-2.7V3.248c0-.078-.03-.155-.088-.212L9.13.088C9.074.031 8.997.001 8.918.001V0h-8C.42 0 .014.405.014.902V14.5c0 .497.405.902.902.902h10.347c.498 0 .903-.405.903-.902v-.905l1.508 1.509c.199.198.46.298.721.298.262 0 .523-.1.722-.298.397-.398.397-1.045 0-1.443zM9.34 12.634c-1.824 0-3.309-1.485-3.309-3.309s1.485-3.309 3.31-3.309c1.824 0 3.308 1.485 3.308 3.309s-1.484 3.309-3.309 3.309zM9.22 1.027l1.92 1.92H9.52c-.166 0-.3-.134-.3-.3v-1.62zM11.564 14.5c0 .166-.135.3-.3.3H.916c-.165 0-.3-.134-.3-.3V.902c0-.165.135-.3.3-.3h7.7v2.045c0 .497.406.902.903.902h2.045v2.562c-.632-.439-1.399-.696-2.225-.696-2.156 0-3.91 1.754-3.91 3.91 0 .421.067.827.19 1.207H1.946c-.166 0-.301.135-.301.3 0 .167.135.302.3.302h3.842c.028 0 .056-.005.082-.012.652 1.255 1.963 2.113 3.472 2.113.709 0 1.374-.19 1.948-.52l.277.278v1.506zm3.127.178c-.163.163-.428.163-.591 0l-2.309-2.308c.218-.176.416-.374.592-.592l2.308 2.308c.163.164.163.429 0 .592z"/>
        <path d="M10.298 6.785c-.166 0-.3.135-.3.3 0 .167.134.302.3.302.415 0 .752.337.752.751 0 .167.135.301.3.301.167 0 .302-.134.302-.3 0-.747-.608-1.354-1.354-1.354zM4.652 8.446H1.945c-.166 0-.301.135-.301.301 0 .166.135.301.3.301h2.708c.166 0 .3-.135.3-.3 0-.167-.134-.302-.3-.302zM4.83 6.36H1.945c-.166 0-.301.136-.301.302 0 .166.135.3.3.3H4.83c.166 0 .301-.134.301-.3 0-.166-.135-.301-.3-.301zM6.448 4.263H1.952c-.166 0-.3.135-.3.3 0 .167.134.302.3.302h4.496c.166 0 .3-.135.3-.301 0-.166-.134-.3-.3-.3zM1.952 2.793h5.77c.167 0 .302-.134.302-.3 0-.167-.135-.301-.301-.301H1.952c-.166 0-.3.134-.3.3 0 .167.134.301.3.301z"/>
    </g>
</svg>
