<svg xmlns="http://www.w3.org/2000/svg" width="36" height="43" viewBox="0 0 36 43">
    <g fill="none" fill-rule="evenodd">
        <text fill="#616161" font-family="Helvetica-Light, Helvetica" font-size="10" font-weight="300">
            <tspan x="0" y="42">Chatear</tspan>
        </text>
        <g fill-rule="nonzero">
            <path fill="#4CAF50" d="M13.5 0h-.006C6.052 0 0 6.053 0 13.497c0 2.953.952 5.69 2.57 7.911L.887 26.422l5.188-1.658c2.135 1.414 4.68 2.23 7.425 2.23 7.442 0 13.494-6.055 13.494-13.497S20.942 0 13.5 0z" transform="translate(5)"/>
            <path fill="#FAFAFA" d="M21.354 19.06c-.325.92-1.618 1.682-2.649 1.904-.705.15-1.626.27-4.727-1.015-3.967-1.644-6.52-5.674-6.72-5.936-.19-.261-1.603-2.134-1.603-4.07 0-1.938.984-2.88 1.38-3.286.326-.332.864-.484 1.38-.484.167 0 .318.009.453.015.396.017.595.04.857.667.325.784 1.118 2.721 1.213 2.92.096.2.192.47.057.73-.126.27-.238.39-.437.62-.199.23-.388.405-.587.651-.182.215-.388.444-.159.84.23.388 1.023 1.683 2.19 2.722 1.507 1.341 2.728 1.77 3.165 1.952.326.135.714.103.952-.15.302-.326.675-.866 1.054-1.397.27-.382.611-.429.969-.294.364.127 2.293 1.08 2.69 1.277.396.2.657.294.753.46.095.168.095.952-.23 1.874z" transform="translate(5)"/>
        </g>
    </g>
</svg>
