<?xml version="1.0" encoding="UTF-8"?>
<svg width="30px" height="30px" viewBox="0 0 21 21" version="1.1" xmlns="http://www.w3.org/2000/svg" xmlns:xlink="http://www.w3.org/1999/xlink">
    <!-- Generator: Sketch 52.5 (67469) - http://www.bohemiancoding.com/sketch -->
    <title>Group 6</title>
    <desc>Created with Sketch.</desc>
    <g id="Android" stroke="none" stroke-width="1" fill="none" fill-rule="evenodd">
        <g id="Tracking-Android-12-Copy" transform="translate(-250.000000, -358.000000)">
            <g id="Group-7" transform="translate(13.000000, 216.000000)">
                <g id="Group-6" transform="translate(237.000000, 142.000000)">
                    <circle id="Oval" fill="#418FDE" cx="10.5" cy="10.5" r="10.5"></circle>
                    <g id="OBFGG51" transform="translate(2.000000, 5.000000)" fill="#FFFFFF" fill-rule="nonzero">
                        <ellipse id="Oval" cx="14.5714286" cy="8.91891892" rx="1" ry="1"></ellipse>
                        <path d="M16.8265306,7.68088468 C16.1326531,5.99526066 14.8316327,5.54344392 14.1377551,5.42180095 C14.2938776,5.09162717 14.3632653,4.88309637 14.3632653,4.8657188 L14.3806122,4.79620853 L13.8602041,2.4328594 L14.0857143,2.24170616 C14.2938776,2.24170616 14.4673469,1.73775671 14.4673469,1.12954186 C14.4673469,0.521327014 14.2938776,0.0173775671 14.0857143,0.0173775671 L14.0857143,0 L11.7959184,0.695102686 L11.7959184,0.990521327 L10.8418367,1.28593997 L10.9806122,1.82464455 L11.7959184,1.92890995 L11.7959184,2.15481833 L12.6632653,2.5892575 L12.6632653,2.64139021 C11.344898,2.84992101 11.0326531,4.79620853 10.8591837,5.87361769 C10.8244898,6.11690363 10.7897959,6.30805687 10.755102,6.42969984 C10.7030612,6.63823065 10.5642857,6.77725118 10.3561224,6.82938389 C10.2346939,6.86413902 10.0959184,6.86413902 10.0959184,6.86413902 L10.0785714,6.86413902 L8.63877551,6.86413902 L8.06632653,6.79462875 C7.71938776,6.55134281 7.49387755,6.0821485 7.40714286,5.38704581 L9.62755102,3.45813586 L9.54081633,3.45813586 C9.54081633,3.40600316 9.50612245,3.33649289 9.43673469,3.26698262 L8.58673469,2.46761453 C8.41326531,2.29383886 8.06632653,2.15481833 7.80612245,2.15481833 L5.91530612,2.15481833 C5.65510204,2.15481833 5.44693878,2.34597156 5.44693878,2.5892575 L5.44693878,3.14533965 C5.44693878,3.26698262 5.49897959,3.37124803 5.58571429,3.45813586 L5.56836735,3.45813586 C5.51632653,3.47551343 4.16326531,3.8056872 2.81020408,4.65718799 C0.971428571,5.80410742 0,7.36808847 0,9.15797788 L0,9.43601896 L1.21428571,9.43601896 C1.49183673,10.3396524 2.30714286,11 3.26122449,11 C4.21530612,11 5.03061224,10.3396524 5.30816327,9.43601896 L9.35,9.43601896 L9.48877551,9.43601896 L9.48877551,9.41864139 C10.0265306,9.36650869 10.5469388,9.22748815 11.05,8.96682464 L12.177551,8.96682464 C12.2816327,10.0963665 13.2010204,10.9826224 14.3285714,10.9826224 C15.5081633,10.9826224 16.4795918,9.97472354 16.4795918,8.74091627 C16.4795918,8.49763033 16.444898,8.27172196 16.3755102,8.04581359 L17,8.04581359 L16.8265306,7.68088468 Z M16.1153061,7.507109 L15.7683673,7.507109 L15.3867347,7.507109 L13.3397959,7.507109 L12.9234694,7.95892575 L12.4897959,8.42812006 L12.472449,8.42812006 L12.194898,8.42812006 L11.9173469,8.42812006 C12.0387755,8.34123223 12.1428571,8.23696682 12.2469388,8.13270142 C12.5765306,7.81990521 12.9061224,7.47235387 13.2010204,7.05529226 C13.2877551,6.95102686 13.3571429,6.82938389 13.4265306,6.72511848 C13.6,6.44707741 13.7561224,6.1864139 13.877551,5.96050553 C14.0683673,5.9778831 14.3806122,6.04739336 14.744898,6.20379147 C15.3346939,6.46445498 15.7857143,6.91627172 16.1153061,7.507109 Z M15.9244898,8.75829384 C15.9244898,9.6793049 15.2132653,10.4265403 14.3285714,10.4265403 C13.5132653,10.4265403 12.8367347,9.7835703 12.75,8.94944708 L13.6,8.06319115 L15.7683673,8.06319115 C15.872449,8.27172196 15.9244898,8.5150079 15.9244898,8.75829384 Z M9.35,8.86255924 L5.42959184,8.86255924 L5.15204082,8.86255924 L4.8744898,8.86255924 L1.68265306,8.86255924 L1.40510204,8.86255924 L1.12755102,8.86255924 L0.57244898,8.86255924 C0.676530612,7.38546603 1.52653061,6.11690363 3.10510204,5.12638231 C4.28469388,4.37914692 5.48163265,4.04897314 5.68979592,3.99684044 L8.13571429,3.99684044 L6.83469388,5.14375987 L6.85204082,5.28278041 C6.93877551,6.27330174 7.26836735,6.95102686 7.84081633,7.2985782 L7.89285714,7.33333333 L8.62142857,7.42022117 L10.0438776,7.42022117 C10.0612245,7.42022117 10.1132653,7.42022117 10.1653061,7.42022117 C10.2520408,7.42022117 10.3908163,7.42022117 10.5469388,7.36808847 C10.9459184,7.26382306 11.2234694,6.98578199 11.327551,6.56872038 C11.3622449,6.42969984 11.3969388,6.22116904 11.4489796,5.96050553 C11.622449,4.9178515 11.9,3.18009479 12.9408163,3.18009479 C12.9581633,3.18009479 12.9581633,3.18009479 12.9755102,3.18009479 L13.2704082,3.18009479 L13.2704082,2.22432859 L12.4030612,1.78988942 L12.4030612,1.09478673 L13.5653061,0.72985782 L13.5653061,1.99842022 L13.2877551,2.24170616 L13.8428571,4.7614534 C13.8081633,4.8657188 13.7214286,5.09162717 13.5826531,5.36966825 C13.5479592,5.45655608 13.4959184,5.54344392 13.4438776,5.63033175 C13.3918367,5.71721959 13.3571429,5.80410742 13.305102,5.89099526 C13.1489796,6.15165877 12.9755102,6.42969984 12.7673469,6.72511848 C12.3163265,7.3507109 11.8132653,7.83728278 11.2928571,8.20221169 C11.1540816,8.30647709 10.9979592,8.37598736 10.8591837,8.4628752 C10.7204082,8.53238547 10.5989796,8.58451817 10.4602041,8.63665087 C10.0785714,8.77567141 9.71428571,8.84518167 9.35,8.86255924 Z M3.27857143,10.4265403 C2.61938776,10.4265403 2.06428571,10.0094787 1.82142857,9.41864139 L4.73571429,9.41864139 C4.49285714,10.0268562 3.9377551,10.4265403 3.27857143,10.4265403 Z" id="Shape"></path>
                        <polygon id="Shape" points="4.67857143 7.13513514 5.16071429 7.13513514 5.16071429 6.24324324 3.33928571 6.24324324 3.33928571 6.52195946 3.33928571 6.96790541 3.33928571 7.13513514 4.07142857 7.13513514"></polygon>
                        <polygon id="Shape" points="4.57578397 7.43243243 4.15004355 7.43243243 2.42857143 7.43243243 2.42857143 8.32432432 4.63131533 8.32432432 4.94599303 8.32432432 5.27918118 8.32432432 5.46428571 8.32432432 5.46428571 7.43243243 4.96450348 7.43243243"></polygon>
                    </g>
                </g>
            </g>
        </g>
    </g>
</svg>