<svg xmlns="http://www.w3.org/2000/svg" width="20" height="19" viewBox="0 0 20 19">
    <path fill="#418FDE" d="M16.048 0c-1.056 0-2.049.426-2.795 1.2l-9.107 9.438c-.524.543-.813 1.265-.813 2.033 0 1.585 1.245 2.874 2.774 2.874.741 0 1.437-.299 1.961-.842l8.477-8.784c.162-.169.162-.442 0-.61-.163-.17-.427-.17-.59 0L7.48 14.092c-.366.38-.853.589-1.372.589-1.07 0-1.94-.902-1.94-2.011 0-.538.202-1.042.568-1.422l9.107-9.439c.59-.61 1.373-.946 2.206-.946 1.72 0 3.119 1.45 3.119 3.232 0 .863-.325 1.675-.914 2.286L8.17 16.832c-.811.841-1.89 1.304-3.038 1.304-2.37 0-4.298-1.998-4.298-4.453 0-1.19.447-2.308 1.259-3.15L11.545.738c.162-.169.162-.442 0-.61-.163-.17-.427-.17-.59 0L1.503 9.923C.533 10.927 0 12.263 0 13.683 0 16.615 2.301 19 5.13 19c1.371 0 2.66-.553 3.629-1.557l10.083-10.45C19.59 6.218 20 5.19 20 4.095 20 1.837 18.227 0 16.048 0z"/>
</svg>
