<svg xmlns="http://www.w3.org/2000/svg" width="31" height="43" viewBox="0 0 31 43">
    <g fill="none" fill-rule="evenodd">
        <text fill="#616161" font-family="Helvetica-Light, Helvetica" font-size="10" font-weight="300">
            <tspan x="0" y="42">Llamar</tspan>
        </text>
        <g transform="translate(1)">
            <circle cx="13.92" cy="13.92" r="13.92" fill="#418FDE"/>
            <path fill="#FFF" fill-rule="nonzero" d="M8.771 8.871c.452-.446 1.02-.446 1.475-.003.28.276.556.557.834.835.27.272.539.538.808.81.475.479.475 1.035.003 1.51-.339.342-.675.683-1.02 1.017-.09.09-.098.162-.052.272.23.544.557 1.028.924 1.48.742.91 1.58 1.718 2.578 2.346.215.134.452.232.675.354.113.063.192.043.284-.052.34-.348.684-.69 1.029-1.032.451-.449 1.02-.449 1.474 0 .553.55 1.107 1.101 1.657 1.654.46.464.458 1.032-.006 1.5-.313.317-.646.618-.941.948-.432.484-.97.64-1.59.605-.901-.049-1.73-.347-2.53-.735-1.775-.864-3.293-2.06-4.565-3.572-.941-1.118-1.717-2.337-2.227-3.71-.25-.664-.426-1.345-.37-2.066.034-.443.199-.822.526-1.132.354-.336.687-.687 1.034-1.029zm5.47 1.11c1.036.145 1.978.614 2.722 1.358.704.707 1.168 1.596 1.336 2.578l-1.07.183c-.13-.76-.486-1.449-1.03-1.993-.577-.577-1.307-.939-2.11-1.052zm.141-2.781c1.724.24 3.285 1.02 4.52 2.254 1.17 1.173 1.937 2.65 2.218 4.278l-1.069.182c-.24-1.404-.904-2.682-1.915-3.693-1.066-1.063-2.415-1.738-3.904-1.946z"/>
        </g>
    </g>
</svg>
