<svg xmlns="http://www.w3.org/2000/svg" width="16" height="20" viewBox="0 0 16 20">
    <path fill="#3FD99B" d="M7.952 12.939c1.066 0 1.939.79 1.939 1.754v3.553C9.89 19.21 9.018 20 7.95 20c-1.066 0-1.939-.79-1.939-1.754v-3.553c0-.965.873-1.754 1.94-1.754zM7.952 0c1.551 0 2.86.921 3.297 2.193h3.733c.533 0 .97.395 1.018.921 0 .482-.436.877-.97.877h-3.733l-.073.2c-.268.656-.769 1.196-1.43 1.555 2.618.658 4.558 2.894 4.558 5.482v4.561c0 .79-.728 1.448-1.6 1.448h-1.31v-2.5c0-1.71-1.551-3.114-3.442-3.114-1.89 0-3.442 1.403-3.442 3.114v2.5h-1.31c-.872 0-1.6-.658-1.6-1.448v-4.605c0-2.588 1.94-4.78 4.558-5.482-.727-.395-1.26-1.009-1.503-1.755H.97c-.534 0-.97-.394-.97-.877 0-.482.436-.877.97-.877h3.685C5.09.921 6.4 0 7.952 0zm0 1.36c-1.067 0-1.94.79-1.94 1.754 0 .965.873 1.754 1.94 1.754 1.115 0 1.987-.79 1.939-1.754 0-.965-.873-1.754-1.94-1.754z"/>
</svg>
