<svg xmlns="http://www.w3.org/2000/svg" width="11" height="16" viewBox="0 0 11 16">
    <path fill="#616161" d="M5.5 0C8.533 0 11 2.523 11 5.625c0 1.017-.268 2.013-.776 2.882L5.97 15.772c-.083.14-.23.227-.39.228-.162 0-.31-.084-.393-.222L.82 8.583C.284 7.696 0 6.673 0 5.625 0 2.523 2.467 0 5.5 0zm0 .931C2.973.931.91 3.041.91 5.625c0 .873.243 1.725.69 2.464l3.97 6.542 3.868-6.605c.422-.723.648-1.553.648-2.401C10.086 3.04 8.027.931 5.5.931zm0 1.881c1.516 0 2.75 1.262 2.75 2.813 0 1.524-1.195 2.813-2.75 2.813-1.536 0-2.75-1.272-2.75-2.813 0-1.55 1.234-2.813 2.75-2.813zm0 .932c-1.01 0-1.84.847-1.84 1.881 0 1.036.824 1.881 1.84 1.881 1.032 0 1.836-.86 1.836-1.881 0-1.034-.825-1.881-1.836-1.881z"/>
</svg>
