<svg xmlns="http://www.w3.org/2000/svg" width="20" height="19" viewBox="0 0 20 19">
    <path fill="#616161" d="M10.428 0c5.238 0 9.5 4.262 9.5 9.5s-4.262 9.5-9.5 9.5-9.5-4.262-9.5-9.5S5.19 0 10.428 0zm0 1.188c-4.583 0-8.312 3.728-8.312 8.312s3.729 8.313 8.312 8.313c4.584 0 8.313-3.73 8.313-8.313 0-4.584-3.73-8.312-8.313-8.312zm.594 13.062v1.188H9.834V14.25h1.188zm-.594-10.687c1.965 0 3.563 1.598 3.563 3.562 0 1.306-.696 2.534-1.816 3.207l-1.153.692v2.038H9.834v-2.375c0-.208.11-.401.289-.509l1.441-.864c.764-.459 1.24-1.298 1.24-2.189 0-1.31-1.066-2.375-2.376-2.375-1.31 0-2.375 1.065-2.375 2.375v1.188H6.866V7.125c0-1.964 1.598-3.562 3.562-3.562z"/>
</svg>
