<svg xmlns="http://www.w3.org/2000/svg" width="23" height="19" viewBox="0 0 23 19">
    <path fill="#616161" stroke="#616161" stroke-width=".1" d="M22.573 17.302h-1.756V3.798c0-.083-.03-.163-.086-.226l-.005-.008-2.24-2.448C18.42 1.042 18.325 1 18.224 1H5.633c-.1 0-.196.042-.263.116L3.13 3.564l-.004.006c-.056.063-.087.144-.087.227v13.505H1.283c-.196 0-.355.156-.355.349 0 .193.16.349.355.349h21.29c.196 0 .355-.156.355-.35 0-.192-.159-.348-.355-.348h0zM19.666 3.449h-5.174l-1-1.75h4.573l1.6 1.75zm-9.74.698h4.004v2.892l-1.838-.94c-.103-.052-.225-.052-.327 0l-1.838.94V4.147zm2.751-2.449l1 1.75H10.18l1-1.75h1.498zm-6.885 0h4.573l-1 1.75H4.19l1.602-1.75zm.73 15.604l.745-1.692 2.458-1.159c.087-.04.152-.114.183-.203l.533-1.569 1.42-.276c.192-.038.317-.221.279-.41-.038-.19-.225-.313-.417-.275l-1.622.316c-.125.024-.227.112-.268.231l-.551 1.62-2.164 1.021-.783-1.148v-3.136c0-.193-.159-.349-.355-.349-.195 0-.354.156-.354.35v3.241c0 .07.021.137.06.194l.906 1.33-.844 1.915h-2V4.147h5.469v3.468c0 .122.065.235.171.298.106.063.238.067.348.011l2.192-1.12 2.193 1.12c.11.056.242.052.348-.011.106-.064.17-.177.17-.299V4.147h5.469v2.696l-1.984.216c-.153.016-.278.129-.309.278l-.221 1.084-1.381.776c-.168.097-.226.309-.13.475.097.167.312.225.482.132l.536-.302.41 1.964c.042.187.228.306.419.267.19-.038.313-.22.277-.408l-.458-2.188.337-.189c.089-.05.151-.135.172-.234l.202-.99 1.648-.179v9.756l-13.587.001z"/>
</svg>
