<svg xmlns="http://www.w3.org/2000/svg" width="17" height="12" viewBox="0 0 17 12">
    <path fill="#616161" d="M15.23 0c.926 0 1.69.76 1.764 1.722l.006.153-.001.741.001.009v7.5c0 .982-.717 1.79-1.626 1.869L15.23 12H1.771C.844 12 .08 11.24.006 10.279L0 10.125v-8.25C0 .893.717.085 1.626.006L1.77 0h13.458zm1.061 5.25H.708v4.875c0 .579.416 1.057.947 1.118l.116.007h13.458c.547 0 .999-.44 1.056-1.003l.007-.122-.001-4.875zM6.729 9c.196 0 .354.168.354.375 0 .181-.121.332-.282.367l-.072.008H2.48c-.195 0-.354-.168-.354-.375 0-.181.121-.332.283-.367L2.479 9h4.25zm7.083-2.25c.547 0 .999.44 1.057 1.003l.006.122v.75c0 .579-.415 1.057-.947 1.118l-.116.007h-.708c-.547 0-.998-.44-1.056-1.003l-.006-.122v-.75c0-.579.415-1.057.947-1.118l.115-.007h.708zm0 .75h-.708c-.17 0-.314.129-.347.3l-.007.075v.75c0 .181.121.332.283.367l.071.008h.708c.172 0 .314-.129.347-.3l.008-.075v-.75c0-.207-.159-.375-.355-.375zm-7.083 0c.196 0 .354.168.354.375 0 .181-.121.332-.282.367l-.072.008H2.48c-.195 0-.354-.168-.354-.375 0-.181.121-.332.283-.367l.071-.008h4.25zM16.292 3H.708v1.5h15.584V3zM15.229.75H1.771c-.547 0-.999.44-1.056 1.003l-.007.122v.374h15.583v-.374c0-.62-.476-1.125-1.062-1.125z"/>
</svg>
