<svg xmlns="http://www.w3.org/2000/svg" width="23" height="22" viewBox="0 0 23 22">
    <path fill="#616161" stroke="#616161" stroke-width=".1" d="M16.954 10.595c.132 0 .26.017.382.05.299.08.56.254.748.502l.087.13 4.567 7.677c.254.427.254.937 0 1.364-.229.384-.62.63-1.066.674L21.52 21h-9.134c-.507 0-.962-.255-1.216-.682-.146-.245-.208-.517-.186-.785.012-.15.05-.298.113-.44l.073-.139.163-.275 4.404-7.403c.184-.309.473-.527.812-.625.129-.037.264-.056.404-.056zm0 .679c-.117 0-.228.028-.327.078-.087.044-.164.106-.226.182l-.057.082-4.201 7.063-.366.615c-.045.076-.073.157-.086.24-.025.15.004.306.086.444.11.184.292.304.503.335l.107.008h9.134c.255 0 .483-.128.61-.343.11-.183.125-.397.047-.59l-.046-.094-4.567-7.678c-.038-.064-.086-.119-.14-.166-.127-.112-.292-.176-.47-.176zM9.637 1c2.282 0 4.137 1.8 4.137 4.016h0V5.8h2.64c.213 0 .403.161.427.369h0l.433 3.786c-.122-.033-.25-.05-.382-.05-.14 0-.276.02-.404.057h0l-.384-3.355h-2.425v.762c.475.162.808.6.808 1.108 0 .646-.547 1.177-1.212 1.177-.666 0-1.213-.53-1.213-1.177 0-.508.333-.946.808-1.108h0v-.762H6.308v.762c.475.162.808.6.808 1.108 0 .646-.547 1.177-1.212 1.177-.666 0-1.213-.53-1.213-1.177 0-.508.333-.946.809-1.108h0v-.762H3.17L1.837 18.68h8.997l-.164.275c-.108.183-.17.38-.186.58h0H1.34c-.12 0-.238-.047-.31-.14-.07-.092-.118-.207-.095-.322h0L2.361 6.17c.024-.208.214-.37.428-.37h2.71v-.784C5.5 2.8 7.355 1 9.638 1zm7.317 17.062c.216 0 .397.143.45.336.01.037.017.077.017.117l-.001.022c-.003.05-.013.098-.031.142-.068.17-.237.29-.435.29-.197 0-.366-.12-.434-.29-.02-.05-.032-.106-.032-.164 0-.25.209-.453.466-.453zm.35-4.077v3.398h-.7v-3.398h.7zM5.928 8.132c-.214 0-.38.161-.38.369s.166.37.38.37.38-.162.38-.37-.166-.37-.38-.37zm7.418 0c-.214 0-.38.161-.38.369s.166.37.38.37.38-.162.38-.37-.166-.37-.38-.37zM9.636 1.83c-1.806 0-3.28 1.43-3.28 3.185h0V5.8h6.562v-.785c0-1.754-1.474-3.185-3.281-3.185z"/>
</svg>
