<svg xmlns="http://www.w3.org/2000/svg" width="13" height="13" viewBox="0 0 13 13">
    <path fill="#616161" d="M6.5 0c1.736 0 3.369.676 4.596 1.904C12.324 3.13 13 4.764 13 6.5c0 1.736-.676 3.369-1.904 4.596C9.87 12.324 8.236 13 6.5 13c-1.736 0-3.369-.676-4.596-1.904C.676 9.87 0 8.236 0 6.5c0-1.736.676-3.369 1.904-4.596C3.13.676 4.764 0 6.5 0zm0 .762C3.336.762.762 3.336.762 6.5c0 3.164 2.574 5.738 5.738 5.738 3.164 0 5.738-2.574 5.738-5.738C12.238 3.336 9.664.762 6.5.762zm0 1.686c.21 0 .38.17.38.38v.844h.844c.21 0 .38.17.38.38s-.17.381-.38.381H6.092c-.465 0-.843.378-.843.843 0 .465.378.843.843.843h.816c.885 0 1.605.72 1.605 1.605s-.72 1.605-1.605 1.605h-.027v.843c0 .21-.17.38-.381.38-.21 0-.38-.17-.38-.38v-.843h-.844c-.21 0-.38-.171-.38-.381s.17-.381.38-.381h1.632c.465 0 .843-.378.843-.843 0-.465-.378-.843-.843-.843h-.816c-.885 0-1.605-.72-1.605-1.605s.72-1.604 1.605-1.604h.027v-.843c0-.21.17-.381.381-.381z"/>
</svg>
