<svg xmlns="http://www.w3.org/2000/svg" width="11" height="16" viewBox="0 0 11 16">
    <path fill="#616161" d="M5.5 0c1.47 0 2.851.583 3.89 1.641 1.922 1.959 2.161 5.643.51 7.885L5.5 16 1.095 9.517C-.55 7.284-.311 3.6 1.61 1.64 2.651.583 4.031 0 5.501 0zm0 .584c-1.315 0-2.552.523-3.483 1.47C.282 3.822.068 7.15 1.56 9.175l3.942 5.798 3.934-5.789c1.498-2.034 1.285-5.362-.45-7.13C8.053 1.107 6.816.584 5.5.584zm.051 2.922c1.107 0 2.008.918 2.008 2.046 0 1.127-.9 2.045-2.008 2.045-1.107 0-2.007-.918-2.007-2.045 0-1.128.9-2.046 2.007-2.046zm0 .585c-.79 0-1.434.655-1.434 1.46 0 .806.644 1.462 1.434 1.462.791 0 1.434-.656 1.434-1.461 0-.806-.643-1.461-1.434-1.461z"/>
</svg>
