<svg width="10" height="10" viewBox="0 0 10 10" xmlns="http://www.w3.org/2000/svg">
    <g fill="#828282" fill-rule="nonzero">
        <path d="m2.912 3.277 1.672-1.799v5.417a.416.416 0 1 0 .832 0V1.478l1.672 1.799a.418.418 0 0 0 .612-.568L5.306.133a.418.418 0 0 0-.61 0L2.302 2.709a.417.417 0 0 0 .61.568z"/>
        <path d="M9.584 6.742a.416.416 0 0 0-.417.416v2.009H.833V7.158a.416.416 0 1 0-.833 0v2.426c0 .23.186.416.416.416h9.168c.23 0 .416-.186.416-.416V7.158a.417.417 0 0 0-.416-.416z"/>
    </g>
</svg>
