<svg xmlns="http://www.w3.org/2000/svg" width="121" height="36" viewBox="0 0 121 36">
    <g fill="none" fill-rule="evenodd">
        <path fill="#12235F" d="M36.185 9.545c2.136 0 3.39.998 4.087 2.972l-1.23.395c-.604-1.811-1.835-2.16-2.903-2.16-1.927 0-2.786 1.161-2.786 2.252 0 1.37.673 1.904 2.043 2.392l1.579.58c2.275.813 3.715 1.626 3.715 3.9 0 1.951-1.184 3.855-4.528 3.855-2.832 0-4.295-1.625-4.736-3.413l1.277-.418c.557 1.765 1.671 2.624 3.39 2.624 2.228 0 3.157-1.115 3.157-2.624 0-1.486-1.021-2.066-2.368-2.53l-1.741-.627c-1.974-.697-3.228-1.556-3.228-3.6 0-1.857 1.556-3.598 4.272-3.598zm11.888 0c2.322 0 3.552 1.788 4.272 3.39l-1.23.395c-.86-1.928-1.835-2.578-3.298-2.578-1.23 0-3.784.767-3.784 5.851 0 3.738 1.463 5.92 3.738 5.92 1.788 0 2.949-1.439 3.413-2.576l1.23.487c-.696 1.323-1.834 3.297-4.41 3.297-4.598 0-5.41-4.318-5.41-7.36 0-4.04 2.275-6.826 5.479-6.826zm11.098 0c3.482 0 4.341 2.415 4.341 4.69v5.874c0 1.23.07 3.065.093 3.343H62.26l-.093-2.182c-1.091 1.207-2.368 2.461-4.481 2.461-2.415 0-3.808-1.648-3.808-3.808 0-4.156 3.808-4.666 7.337-4.666h.952c-.07-2.438-.14-4.505-3.158-4.505-2.112 0-2.763 1.486-3.273 2.578l-1.208-.395c.604-1.811 1.997-3.39 4.644-3.39zm17.088 3.53v10.377h-1.347v-10.1c.024-1.485-.65-2.507-2.345-2.507-1.927 0-3.204 1.393-4.388 2.693v9.914h-1.346V9.824h1.346v2.345c1.277-1.277 2.624-2.624 4.667-2.624.79 0 3.413.348 3.413 3.53zM62.166 16.37h-.906c-3.413 0-5.943.441-5.943 3.39 0 2.02 1.37 2.67 2.6 2.67 1.672 0 2.6-.929 4.249-2.53v-3.53zM2.219 23.374v3.572c0 .109.073.2.173.228l.063.009h4.013V29.4H2.455a2.459 2.459 0 0 1-2.45-2.294L0 26.946v-3.572h2.219zm27.475 0v3.572c0 1.3-1.015 2.367-2.294 2.45l-.161.005h-3.244v-2.218h3.244c.108 0 .2-.074.228-.174l.008-.063v-3.572h2.219zM10.544 7.4v16.232h-.72V7.93c.232-.19.473-.366.72-.53zm4.53-1.449v17.68h-.72V6.009a8.97 8.97 0 0 1 .72-.056zM8.863 8.843v14.62H7.33a1.452 1.452 0 0 1-.758-1.125l-.007-.148V14.79a8.776 8.776 0 0 1 2.297-5.946zm4.53-2.667v17.287h-1.967V6.888a8.735 8.735 0 0 1 1.966-.712zm2.352-.224c.538.02 1.067.088 1.583.201l.384.094v17.216h-1.967V5.953zm2.928.613c.163.065.324.134.483.208l.237.115V22.71c-.157.08-.316.154-.477.224l-.243.1V6.565zm1.602.836a8.93 8.93 0 0 1 1.781 1.554l.185.217v11.249a8.944 8.944 0 0 1-1.623 1.538l-.343.239V7.4zm2.927 3.199a8.73 8.73 0 0 1 .72 1.78 8.912 8.912 0 0 1-.545 6.26l-.175.346V10.6zM27.24.032c1.3 0 2.367 1.016 2.45 2.295l.005.16V6.06h-2.219V2.488c0-.109-.073-.2-.173-.228l-.063-.009h-3.244V.032h3.244zm-20.771 0v2.22H2.455a.237.237 0 0 0-.236.236V6.06H0V2.488A2.458 2.458 0 0 1 2.455.032h4.013zM100.41 8.8c.899 0 1.798.166 2.555.284h5.11v1.887h-2.768c.378.377 1.088 1.085 1.088 2.618 0 1.817-1.301 4.199-5.607 4.199-.355 0-.686-.047-.899-.094-.19.188-.355.4-.355.802 0 .33.19.448.805.613l4.258 1.156c1.68.448 3.1 1.439 3.1 3.467 0 3.208-3.313 4.223-6.53 4.223-3.975 0-6.317-1.463-6.317-3.633s1.68-3.02 2.673-3.515c-.615-.33-.828-1.014-.828-1.486 0-.755.592-1.675 1.373-2.028-2.177-1.038-2.84-2.123-2.84-4.01 0-2.5 2.106-4.482 5.182-4.482zM99.32 21.705c-.804.542-1.49 1.18-1.49 2.217 0 1.344 1.632 1.863 3.454 1.863 2.295 0 3.146-.707 3.146-1.745 0-.85-.662-1.203-1.608-1.439l-3.502-.896zM113.587 8.8c4.14 0 6.482 2.972 6.482 7.289 0 4.6-2.697 7.383-6.482 7.383-3.975 0-6.483-2.784-6.483-7.383 0-4.317 2.532-7.29 6.483-7.29zm0 2.406c-1.798 0-2.934 1.462-2.934 4.93 0 3.562 1.136 4.93 2.934 4.93 1.798 0 2.933-1.368 2.933-4.93 0-3.468-1.135-4.93-2.933-4.93zm-12.704-.142c-1.75 0-2.579.897-2.579 2.218 0 1.368 1.065 2.24 2.531 2.24 1.49 0 2.485-.896 2.485-2.24 0-1.604-1.325-2.218-2.437-2.218z"/>
        <path fill="#FBD84F" d="M82.408 9.977c0 1.237 1.404 2.689 2.19 3.545 2.26-1.047 3.236-1.903 3.236-3.64 0-1.238-.643-2.594-2.642-2.594-1.57 0-2.784 1.094-2.784 2.689zm1.737 5.211c-2.427 1.07-3.14 2.19-3.14 3.688 0 .738.428 3.403 3.854 3.403 2.118 0 3.474-1.285 4.093-1.904l-4.807-5.187zm5.592 3.974c.476-.666 1.19-1.642 1.5-4.878h1.475a11.055 11.055 0 0 1-2 5.949l2.856 3.022h-2.07l-1.69-1.809c-1.308 1.142-2.45 2.166-5.044 2.166-3.903 0-5.306-2.76-5.306-4.783 0-2.38 1.57-3.689 3.712-4.712-1.595-1.69-2.309-2.57-2.309-4.212 0-1.808 1.666-3.95 4.403-3.95 2.76 0 4.116 2 4.116 3.831 0 2.737-1.927 3.784-3.83 4.783l4.187 4.593z"/>
        <path fill="#12235F" d="M47.302 29.779c.964 0 1.445.923 1.445 2.033 0 .836-.227 2.054-1.391 2.054-.595 0-.903-.295-1.157-.636h-.014v1.813h-.388v-5.184h.388v.555h.014c.26-.354.615-.635 1.103-.635zm28.24 0c1.003 0 1.25.695 1.25 1.351v1.692c0 .355.02.883.027.963h-.388l-.026-.628c-.315.348-.683.709-1.291.709-.696 0-1.097-.475-1.097-1.097 0-1.198 1.097-1.345 2.113-1.345h.275c-.02-.702-.04-1.297-.91-1.297-.609 0-.796.428-.943.742l-.348-.114c.174-.521.575-.976 1.338-.976zm-22.006 0c1.003 0 1.251.695 1.251 1.351v1.692c0 .355.02.883.027.963h-.388l-.027-.628c-.314.348-.682.709-1.29.709-.697 0-1.098-.475-1.098-1.097 0-1.198 1.097-1.345 2.114-1.345h.274c-.02-.702-.04-1.297-.91-1.297-.608 0-.796.428-.943.742l-.348-.114c.174-.521.576-.976 1.338-.976zm5.431 0c.616 0 .977.288 1.178.856l-.355.114c-.174-.522-.528-.622-.836-.622-.555 0-.803.334-.803.648 0 .395.194.549.589.69l.455.167c.655.234 1.07.468 1.07 1.123 0 .562-.341 1.11-1.304 1.11-.816 0-1.238-.468-1.365-.983l.368-.12c.16.508.482.756.977.756.642 0 .91-.321.91-.756 0-.428-.295-.595-.683-.729l-.502-.18c-.568-.201-.93-.449-.93-1.037 0-.535.449-1.037 1.231-1.037zm-25.122 0c.668 0 1.023.515 1.23.976l-.354.114c-.248-.555-.529-.742-.95-.742-.354 0-1.09.22-1.09 1.685 0 1.077.421 1.706 1.077 1.706.515 0 .85-.415.983-.743l.354.14c-.2.382-.528.95-1.27.95-1.325 0-1.559-1.243-1.559-2.12 0-1.163.656-1.966 1.579-1.966zm3.491 0c1.304 0 1.592 1.264 1.592 2.06 0 .99-.455 2.027-1.592 2.027s-1.592-1.037-1.592-2.027c0-.796.288-2.06 1.592-2.06zm35.69-1.19v5.196h-.387v-5.197h.388zm-29.362 1.19c.956 0 .956.896.956 1.07v2.936h-.388v-2.742c0-.415-.1-.89-.642-.89-.428 0-.736.214-1.15.63v3.002h-.388v-2.702c0-.361-.074-.93-.65-.93-.414 0-.895.449-1.143.79v2.842h-.388V29.86h.388v.676c.294-.341.662-.756 1.25-.756.63 0 .81.475.89.675.435-.508.877-.675 1.265-.675zm27.677.08v3.926h-.388V29.86h.388zm-19.885-.027v.415c-.649.027-.85.174-1.304.77v2.768h-.388V29.86h.388v.716c.455-.502.662-.736 1.304-.743zm10.16.027v3.926h-.388V29.86h.388zm2.983-.08c.228 0 .983.1.983 1.017v2.99h-.388v-2.91c.007-.428-.187-.723-.675-.723-.555 0-.923.402-1.264.776v2.856h-.388V29.86h.388v.676c.368-.368.756-.756 1.344-.756zm5.237-1.217c.194 0 .335.02.469.06v.381a1.066 1.066 0 0 0-.388-.094c-.537 0-.573.472-.575.78v.471h.755v.348h-.756v3.277h-.387v-3.277h-.59v-.348h.59v-.622c0-.736.434-.976.882-.976zm-32.5 1.565c-.856 0-1.177.822-1.177 1.625 0 1.17.455 1.766 1.177 1.766.723 0 1.177-.595 1.177-1.766 0-.803-.32-1.625-1.177-1.625zm9.926.026c-.702 0-1.077.643-1.077.676v1.98c.275.395.589.682 1.084.682.836 0 1.063-.896 1.063-1.612 0-.588-.127-1.726-1.07-1.726zm7.137 1.592h-.26c-.984 0-1.713.127-1.713.977 0 .582.394.77.749.77.482 0 .75-.268 1.224-.73v-1.017zm22.006 0h-.261c-.984 0-1.713.127-1.713.977 0 .582.395.77.75.77.481 0 .749-.268 1.224-.73v-1.017zM61.65 28.588v.515h-.455v-.515h.455zm9.725 0v.515h-.455v-.515h.455z"/>
    </g>
</svg>
