<?xml version="1.0" encoding="UTF-8"?>
<svg width="500px" height="500px" viewBox="0 0 500 500" version="1.1" xmlns="http://www.w3.org/2000/svg" xmlns:xlink="http://www.w3.org/1999/xlink">
    <!-- Generator: Sketch 61.2 (89653) - https://sketch.com -->
    <title>datafono_monitor@2x</title>
    <desc>Created with Sketch.</desc>
    <defs>
        <polygon id="path-1" points="0 334.670713 163.142718 334.670713 163.142718 0 0 0"></polygon>
    </defs>
    <g id="Page-1" stroke="none" stroke-width="1" fill="none" fill-rule="evenodd">
        <g id="datafono_monitor">
            <circle id="Oval" fill="#F0EFEB" fill-rule="nonzero" cx="250" cy="250" r="250"></circle>
            <g id="Group-35" transform="translate(168.000000, 73.000000)">
                <g id="Group-34">
                    <path d="M148.100297,54.8256726 L84.3377813,54.8256726 L15.048282,54.8256726 C6.77245952,54.8256726 0.00293053203,61.6298387 0.00293053203,69.9421143 L0.00293053203,319.546024 C0.00293053203,327.864191 6.77245952,334.668357 15.048282,334.668357 L84.3377813,334.668357 L148.100297,334.668357 C156.370259,334.668357 163.139788,327.864191 163.139788,319.546024 L163.139788,69.9421143 C163.139788,61.6298387 156.370259,54.8256726 148.100297,54.8256726" id="Fill-1" fill="#4E6174"></path>
                    <path d="M135.731108,82.1324699 L84.3354369,82.1324699 L27.4186438,82.1324699 C25.0507739,82.1324699 23.1166228,84.0765174 23.1166228,86.4506117 L23.1166228,175.146304 C23.1166228,177.526289 25.0507739,179.470336 27.4186438,179.470336 L84.3354369,179.470336 L135.731108,179.470336 C138.093116,179.470336 140.027268,177.526289 140.027268,175.146304 L140.027268,86.4506117 C140.027268,84.0765174 138.093116,82.1324699 135.731108,82.1324699" id="Fill-3" fill="#00DD96"></path>
                    <path d="M56.0575611,197.680759 L28.0416749,197.680759 C27.4262632,197.680759 26.9280727,198.18739 26.9280727,198.794168 L26.9280727,221.739819 C26.9280727,222.35838 27.4262632,222.853228 28.0416749,222.853228 L56.0575611,222.853228 C56.6729728,222.853228 57.1653022,222.35838 57.1653022,221.739819 L57.1653022,198.794168 C57.1653022,198.18739 56.6729728,197.680759 56.0575611,197.680759" id="Fill-5" fill="#E6E8E9"></path>
                    <path d="M95.5798883,197.680759 L67.5640021,197.680759 C66.9544514,197.680759 66.4503999,198.18739 66.4503999,198.794168 L66.4503999,221.739819 C66.4503999,222.35838 66.9544514,222.853228 67.5640021,222.853228 L95.5798883,222.853228 C96.189439,222.853228 96.6876294,222.35838 96.6876294,221.739819 L96.6876294,198.794168 C96.6876294,198.18739 96.189439,197.680759 95.5798883,197.680759" id="Fill-7" fill="#E6E8E9"></path>
                    <path d="M135.101629,197.680759 L107.091604,197.680759 C106.476193,197.680759 105.972141,198.18739 105.972141,198.794168 L105.972141,221.739819 C105.972141,222.35838 106.476193,222.853228 107.091604,222.853228 L135.101629,222.853228 C135.71118,222.853228 136.20937,222.35838 136.20937,221.739819 L136.20937,198.794168 C136.20937,198.18739 135.71118,197.680759 135.101629,197.680759" id="Fill-9" fill="#E6E8E9"></path>
                    <path d="M56.0575611,230.003788 L28.0416749,230.003788 C27.4262632,230.003788 26.9280727,230.510418 26.9280727,231.123088 L26.9280727,254.062848 C26.9280727,254.681408 27.4262632,255.176257 28.0416749,255.176257 L56.0575611,255.176257 C56.6729728,255.176257 57.1653022,254.681408 57.1653022,254.062848 L57.1653022,231.123088 C57.1653022,230.510418 56.6729728,230.003788 56.0575611,230.003788" id="Fill-11" fill="#E6E8E9"></path>
                    <path d="M95.5798883,230.003788 L67.5640021,230.003788 C66.9544514,230.003788 66.4503999,230.510418 66.4503999,231.123088 L66.4503999,254.062848 C66.4503999,254.681408 66.9544514,255.176257 67.5640021,255.176257 L95.5798883,255.176257 C96.189439,255.176257 96.6876294,254.681408 96.6876294,254.062848 L96.6876294,231.123088 C96.6876294,230.510418 96.189439,230.003788 95.5798883,230.003788" id="Fill-13" fill="#E6E8E9"></path>
                    <path d="M135.101629,230.003788 L107.091604,230.003788 C106.476193,230.003788 105.972141,230.510418 105.972141,231.123088 L105.972141,254.062848 C105.972141,254.681408 106.476193,255.176257 107.091604,255.176257 L135.101629,255.176257 C135.71118,255.176257 136.20937,254.681408 136.20937,254.062848 L136.20937,231.123088 C136.20937,230.510418 135.71118,230.003788 135.101629,230.003788" id="Fill-15" fill="#E6E8E9"></path>
                    <path d="M56.0575611,262.327406 L28.0416749,262.327406 C27.4262632,262.327406 26.9280727,262.828145 26.9280727,263.446706 L26.9280727,286.386466 C26.9280727,286.999135 27.4262632,287.505766 28.0416749,287.505766 L56.0575611,287.505766 C56.6729728,287.505766 57.1653022,286.999135 57.1653022,286.386466 L57.1653022,263.446706 C57.1653022,262.828145 56.6729728,262.327406 56.0575611,262.327406" id="Fill-17" fill="#E6E8E9"></path>
                    <path d="M95.5798883,262.327406 L67.5640021,262.327406 C66.9544514,262.327406 66.4503999,262.828145 66.4503999,263.446706 L66.4503999,286.386466 C66.4503999,286.999135 66.9544514,287.505766 67.5640021,287.505766 L95.5798883,287.505766 C96.189439,287.505766 96.6876294,286.999135 96.6876294,286.386466 L96.6876294,263.446706 C96.6876294,262.828145 96.189439,262.327406 95.5798883,262.327406" id="Fill-19" fill="#E6E8E9"></path>
                    <path d="M135.101629,262.327406 L107.091604,262.327406 C106.476193,262.327406 105.972141,262.828145 105.972141,263.446706 L105.972141,286.386466 C105.972141,286.999135 106.476193,287.505766 107.091604,287.505766 L135.101629,287.505766 C135.71118,287.505766 136.20937,286.999135 136.20937,286.386466 L136.20937,263.446706 C136.20937,262.828145 135.71118,262.327406 135.101629,262.327406" id="Fill-21" fill="#E6E8E9"></path>
                    <path d="M56.0575611,294.650435 L28.0416749,294.650435 C27.4262632,294.650435 26.9280727,295.151174 26.9280727,295.769735 L26.9280727,318.709495 C26.9280727,319.322164 27.4262632,319.828795 28.0416749,319.828795 L56.0575611,319.828795 C56.6729728,319.828795 57.1653022,319.322164 57.1653022,318.709495 L57.1653022,295.769735 C57.1653022,295.151174 56.6729728,294.650435 56.0575611,294.650435" id="Fill-23" fill="#FF4545"></path>
                    <path d="M95.5798883,294.650435 L67.5640021,294.650435 C66.9544514,294.650435 66.4503999,295.151174 66.4503999,295.769735 L66.4503999,318.709495 C66.4503999,319.322164 66.9544514,319.828795 67.5640021,319.828795 L95.5798883,319.828795 C96.189439,319.828795 96.6876294,319.322164 96.6876294,318.709495 L96.6876294,295.769735 C96.6876294,295.151174 96.189439,294.650435 95.5798883,294.650435" id="Fill-25" fill="#E6E8E9"></path>
                    <path d="M135.101629,294.650435 L107.091604,294.650435 C106.476193,294.650435 105.972141,295.151174 105.972141,295.769735 L105.972141,318.709495 C105.972141,319.322164 106.476193,319.828795 107.091604,319.828795 L135.101629,319.828795 C135.71118,319.828795 136.20937,319.322164 136.20937,318.709495 L136.20937,295.769735 C136.20937,295.151174 135.71118,294.650435 135.101629,294.650435" id="Fill-27" fill="#00B9ED"></path>
                    <mask id="mask-2" fill="white">
                        <use xlink:href="#path-1"></use>
                    </mask>
                    <g id="Clip-30"></g>
                    <polygon id="Fill-29" fill="#E2E2E2" mask="url(#mask-2)" points="25.9117642 54.828029 137.699839 54.828029 137.699839 0 25.9117642 0"></polygon>
                    <polygon id="Fill-31" fill="#C3CBCD" mask="url(#mask-2)" points="32.2768798 16.5361854 132.061495 16.5361854 132.061495 8.01772295 32.2768798 8.01772295"></polygon>
                    <polygon id="Fill-32" fill="#C3CBCD" mask="url(#mask-2)" points="32.2768798 32.4832655 132.061495 32.4832655 132.061495 23.9706941 32.2768798 23.9706941"></polygon>
                </g>
            </g>
        </g>
    </g>
</svg>