<?xml version="1.0" encoding="UTF-8"?>
<svg width="500px" height="500px" viewBox="0 0 500 500" version="1.1" xmlns="http://www.w3.org/2000/svg" xmlns:xlink="http://www.w3.org/1999/xlink">
    <!-- Generator: Sketch 61.2 (89653) - https://sketch.com -->
    <title>efectivo_monitor@2x</title>
    <desc>Created with Sketch.</desc>
    <g id="Page-1" stroke="none" stroke-width="1" fill="none" fill-rule="evenodd">
        <g id="efectivo_monitor">
            <circle id="Oval-Copy" fill="#F0EFEB" fill-rule="nonzero" cx="250" cy="250" r="250"></circle>
            <g id="efectivo" transform="translate(80.000000, 165.000000)">
                <polygon id="Fill-1" fill="#8BCB0A" points="0.321341083 169.328518 339.14524 169.328518 339.14524 0.467218048 0.321341083 0.467218048"></polygon>
                <path d="M33.6127651,64.7670135 C46.8925049,64.7670135 58.8436527,47.5599489 58.8436527,33.9834043 L144.036263,33.9834043 C128.980948,44.1673921 118.784777,63.5519264 118.784777,85.8657261 C118.784777,106.844404 127.808903,125.628765 141.399677,135.810647 L58.8436527,135.810647 C58.8436527,122.234103 46.8925049,114.549783 33.6127651,114.549783 L33.6127651,64.7670135 Z M280.176769,135.810647 L194.485679,135.810647 C208.074394,125.628765 217.10058,106.844404 217.10058,85.8657261 C217.10058,63.5519264 206.904409,44.1673921 191.849094,33.9834043 L280.176769,33.9834043 C280.176769,47.5599489 292.572841,64.7670135 305.85464,64.7670135 L305.85464,114.549783 C292.572841,114.549783 280.176769,122.234103 280.176769,135.810647 L280.176769,135.810647 Z M17.0125754,152.781854 L322.45277,152.781854 L322.45277,17.014303 L17.0125754,17.014303 L17.0125754,152.781854 Z" id="Fill-2" fill="#419B19"></path>
                <path d="M172.265855,46.8399519 L172.265855,55.1328683 C175.744912,55.3518788 178.95825,56.0657688 181.901751,57.2682206 C184.845251,58.4727783 187.4427,59.9237228 189.692037,61.6210541 L185.59709,69.1727043 C185.115089,68.627284 184.404447,68.0376403 183.467224,67.4079852 C182.53,66.77833 181.446528,66.1760512 180.214748,65.6011486 C178.982968,65.028352 177.631718,64.5334725 176.158938,64.1249337 C174.688218,63.714289 173.174241,63.455267 171.621127,63.3436559 L171.621127,80.3401335 L173.147463,80.6686492 C176.039468,81.3804333 178.649275,82.1743463 180.976886,83.0503883 C183.308616,83.9264303 185.273697,84.9941064 186.882426,86.2513109 C188.487035,87.5106212 189.731174,89.0563298 190.616902,90.8905427 C191.49851,92.7247556 191.939314,94.954872 191.939314,97.5829979 C191.939314,100.484887 191.430536,102.96139 190.415038,105.014614 C189.397481,107.065731 187.990616,108.777803 186.196502,110.144513 C184.404447,111.513329 182.315777,112.538887 179.932551,113.225401 C177.549325,113.909809 174.995133,114.278336 172.265855,114.333089 L172.265855,122.954521 L168.086455,122.954521 L168.086455,114.168831 C164.230448,113.892962 160.563947,113.115896 157.08489,111.829209 C153.603773,110.542523 150.419272,108.750427 147.527267,106.450817 L151.622214,98.5685451 C152.211326,99.2255766 153.068216,99.9373607 154.192885,100.703897 C155.317553,101.470434 156.627607,102.209595 158.129225,102.919273 C159.626723,103.631057 161.274589,104.260712 163.066643,104.808238 C164.860757,105.355764 166.720786,105.739033 168.650849,105.955937 L168.650849,88.9615657 C168.329515,88.8520604 167.991702,88.7551904 167.645651,88.6751674 C167.297539,88.5909326 166.963846,88.4961684 166.642512,88.3866632 C163.804063,87.6201264 161.326085,86.8135782 159.212696,85.9649125 C157.099308,85.1162469 155.344331,84.0906881 153.953944,82.8861304 C152.559438,81.6815727 151.502744,80.2706398 150.779742,78.6575433 C150.056741,77.0423409 149.696271,75.0859876 149.696271,72.7863774 C149.696271,70.1034989 150.151494,67.7238657 151.061939,65.643266 C151.972385,63.5626664 153.255661,61.7705709 154.915886,60.2648738 C156.576111,58.7591767 158.514413,57.5819953 160.739032,56.7333296 C162.959532,55.884664 165.408672,55.3518788 168.086455,55.1328683 L168.086455,46.8399519 L172.265855,46.8399519 Z M171.621127,89.782855 L171.621127,106.040172 C175.046628,105.98542 177.685274,105.328388 179.530884,104.069078 C181.378553,102.811873 182.303418,100.977661 182.303418,98.5685451 C182.303418,96.1615356 181.366194,94.3399579 179.491747,93.1080239 C177.617299,91.8760899 174.995133,90.7684022 171.621127,89.782855 Z M262.689615,71.6365723 C269.853713,71.6365723 275.66038,77.5730202 275.66038,84.8972364 C275.66038,92.2214526 269.853713,98.1579004 262.689615,98.1579004 C255.525518,98.1579004 249.71885,92.2214526 249.71885,84.8972364 C249.71885,77.5730202 255.525518,71.6365723 262.689615,71.6365723 Z M76.776348,71.6365723 C83.9404453,71.6365723 89.747113,77.5730202 89.747113,84.8972364 C89.747113,92.2214526 83.9404453,98.1579004 76.776348,98.1579004 C69.6143106,98.1579004 63.8076429,92.2214526 63.8076429,84.8972364 C63.8076429,77.5730202 69.6143106,71.6365723 76.776348,71.6365723 Z M168.650849,63.3436559 C165.381895,63.5079137 162.973951,64.2891915 161.420837,65.6832776 C159.867723,67.0794694 159.093226,68.9557997 159.093226,71.3080566 C159.093226,73.6076668 159.884202,75.3302685 161.462033,76.4821795 C163.041925,77.6298787 165.43751,78.6449081 168.650849,79.5188441 L168.650849,63.3436559 Z" id="Combined-Shape" fill="#FFFFFF"></path>
            </g>
        </g>
    </g>
</svg>