<?xml version="1.0" encoding="UTF-8"?>
<svg width="501px" height="500px" viewBox="0 0 501 500" version="1.1" xmlns="http://www.w3.org/2000/svg" xmlns:xlink="http://www.w3.org/1999/xlink">
    <!-- Generator: Sketch 61.2 (89653) - https://sketch.com -->
    <title>payu@2x</title>
    <desc>Created with Sketch.</desc>
    <g id="Page-1" stroke="none" stroke-width="1" fill="none" fill-rule="evenodd">
        <g id="payu" fill-rule="nonzero">
            <circle id="Oval" fill="#F0EFEB" cx="250.441" cy="250" r="250"></circle>
            <path d="M413.243593,213.994196 C413.221893,216.586296 411.632193,218.118596 409.040093,218.147296 C405.703193,218.175996 402.359293,218.147296 399.014693,218.140296 C399.014693,218.140296 399.272293,245.923996 398.914593,259.816196 C398.491793,276.608495 389.540893,288.029695 373.365294,292.497795 C359.687994,296.278495 345.860894,296.249795 332.341094,291.659895 C318.585395,286.990895 311.030995,277.123695 309.490995,262.658896 C309.276095,260.596696 309.211695,258.534496 309.211695,256.464596 C309.211695,239.915896 309.204695,223.360196 309.211695,206.812196 C309.211695,199.350897 311.431395,197.030397 318.871695,196.701397 C322.902995,196.522197 326.934994,196.357697 330.922894,197.109497 C334.639194,197.803897 336.522894,199.923497 336.873594,203.711897 C337.009394,205.137097 337.073794,206.576296 337.081494,208.001496 C337.088494,224.607596 337.081494,241.212996 337.088494,257.811396 C337.088494,262.494396 338.405894,266.525695 342.859994,268.867895 C345.043994,270.013795 347.428894,270.514995 349.877494,270.743895 C353.701594,271.102295 357.496294,271.073595 361.269994,270.300095 C367.657494,268.996695 370.979694,265.101195 371.216294,258.570896 C371.230294,258.091396 371.216294,257.611196 371.223294,257.138696 C371.244994,240.002696 371.258994,222.867396 371.294694,205.739096 C371.294694,204.786397 371.387794,203.827397 371.538294,202.889397 C372.054194,199.616897 374.030294,197.754897 377.238394,197.096197 C379.049994,196.723797 380.897294,196.702097 382.730593,196.616697 L382.730593,196.623697 L385.093793,196.623697 C385.093793,196.623697 385.086793,194.382297 385.158193,193.694897 C385.408793,191.389097 386.769593,189.885497 389.053693,189.856797 C395.784893,189.763697 402.523093,189.756697 409.261293,189.842797 C411.724593,189.878497 413.228193,191.589997 413.242893,194.103697 C413.279293,200.732697 413.286993,207.363796 413.243593,213.994196 Z" id="Path" fill="#BAD000"></path>
            <path d="M399.034293,218.125596 C395.957793,218.112296 392.874993,217.970896 389.807593,218.124196 C387.125893,218.257896 385.033593,216.523296 385.117593,213.371196 C385.254093,208.226896 385.220493,201.765197 385.142793,196.622297 C385.142793,196.622297 385.880593,196.648897 386.269093,196.663597 C388.702293,196.756697 391.138293,196.692297 393.534393,197.322297 C396.394593,198.074797 398.108893,199.796097 398.669593,202.726997 C399.183393,205.416397 398.914593,208.122596 398.971993,210.821096 C399.023793,213.259896 399.006293,215.700096 399.019593,218.140319 C399.018193,218.140996 399.034293,218.125596 399.034293,218.125596 Z" id="Path" fill="#AEB702"></path>
            <g id="Group" transform="translate(96.599998, 154.699997)" fill="#BAD000">
                <path d="M0.396199993,94.5832984 C0.396199993,82.7021986 0.391299993,70.8217988 0.401099993,58.940699 C0.403199993,56.712599 0.507499991,54.4851991 1.03529998,52.3074991 C2.52699996,46.1593992 6.88729988,42.3870993 13.6100998,42.1287993 C24.6791996,41.7038993 35.7755994,41.3440993 46.8222992,42.4304993 C53.8985991,43.1262993 60.356099,45.5342992 65.1755989,51.1398991 C68.6391988,55.1690991 70.3093988,59.992799 71.0422988,65.1657989 C72.0187988,72.0544988 71.9151988,78.9081987 70.0076988,85.6547985 C67.3385989,95.0921984 60.904899,100.521398 51.5906991,102.832098 C47.4011992,103.871598 43.1276993,104.204098 38.8198993,104.200598 C31.0232995,104.193598 23.2259996,104.234898 15.4300997,104.158598 C13.9936998,104.144598 13.6730998,104.563898 13.6814998,105.942898 C13.7416998,115.171698 13.7080998,124.400498 13.7122998,133.629298 C13.7129998,134.973998 13.6114998,136.308198 12.7707998,137.411398 C10.9962998,139.740298 3.27879994,139.777398 1.43359998,137.494698 C0.921199984,136.860498 0.620899989,136.126198 0.57049999,135.309998 C0.499099992,134.146598 0.403199993,132.981098 0.401799993,131.816998 C0.391299993,119.405998 0.396199993,106.994998 0.396199993,94.5832984 Z M13.7185998,75.3997987 C13.7185998,80.3851986 13.7556998,85.3712985 13.6898998,90.3566985 C13.6751998,91.4780984 13.9747998,91.7517984 15.0828997,91.745604 C23.3036996,91.6964984 31.5244995,91.7321984 39.7452993,91.7104984 C41.9733993,91.7048984 44.1930992,91.4822984 46.3875992,91.0839984 C52.6119991,89.9534985 56.494899,86.4646985 57.560299,80.8695986 C58.510199,75.8792987 58.576699,70.8490988 57.549099,65.8594989 C56.393399,60.248299 53.1138991,56.620199 47.4025992,55.3426991 C45.1142992,54.8309991 42.7958993,54.5761991 40.4697993,54.5586991 C33.5222994,54.5061991 26.5733995,54.5306991 19.6265997,54.5502991 C18.8376997,54.5523991 18.0354997,54.6461991 17.2633997,54.8099991 C15.4132997,55.2026991 14.2694998,56.352099 13.9754998,58.234399 C13.8200998,59.225599 13.7367998,60.237099 13.7318998,61.240199 C13.7045998,65.9588989 13.7178998,70.6789988 13.7185998,75.3997987 Z" id="Shape"></path>
                <path d="M156.821697,168.079797 C153.316797,168.151897 151.974897,167.094197 151.190197,163.638997 C150.955697,162.607897 150.702297,161.570497 150.602197,160.521897 C150.380297,158.211197 151.274197,157.040097 153.568097,156.620097 C155.599497,156.247697 157.679897,156.099997 159.681197,155.617697 C164.396397,154.480897 167.755697,151.587097 169.950197,147.286997 C170.915497,145.396298 171.723297,143.441898 172.400197,141.434998 C172.573097,140.923998 173.124697,140.314998 172.654297,139.836898 C172.288897,139.465898 171.656097,139.841798 171.148597,139.936998 C168.619497,140.410198 166.084097,140.421398 163.559197,139.964298 C158.281197,139.008098 154.932397,135.698498 152.816997,130.971398 C150.578397,125.969898 149.475197,120.608598 148.026897,115.362098 C144.027098,100.869998 140.099398,86.3582985 136.159098,71.8493988 C134.787098,66.7960989 135.932298,65.3323989 141.163398,65.3463989 C141.588298,65.3477989 142.012498,65.3456989 142.436698,65.3624989 C146.230698,65.5094989 147.895997,66.7841989 148.927097,70.4661988 C150.238897,75.1526987 151.487697,79.8573986 152.768697,84.5536986 C156.165797,97.0101983 159.564997,109.466698 162.966997,121.921798 C163.092297,122.380998 163.260997,122.828998 163.413597,123.280498 C165.081697,128.225298 167.208997,129.295598 172.875497,128.594198 C174.967097,128.335898 176.157797,126.776298 176.936197,124.935298 C178.201797,121.943498 178.723997,118.739598 179.484197,115.609198 C183.117897,100.643898 186.701197,85.6666985 190.314597,70.6964988 C191.256797,66.7932989 192.890597,65.4646989 196.877797,65.3568989 C198.197997,65.3211989 199.523097,65.2721989 200.840497,65.5479989 C203.006997,66.0008989 203.790997,66.9654989 203.743397,69.1949988 C203.714697,70.5361988 203.324097,71.8066988 203.004197,73.0869988 C197.415397,95.4547984 191.833597,117.825398 186.200697,140.181998 C184.705497,146.115898 182.597797,151.817397 179.062097,156.893797 C174.574397,163.336597 168.287697,166.730897 160.619197,167.782297 C159.779197,167.897797 158.936397,167.997897 158.092197,168.074197 C157.672197,168.111297 157.245197,168.079797 156.821697,168.079797 Z" id="Path"></path>
                <path d="M131.123998,101.926298 C131.123998,107.494098 131.262598,113.064698 131.093898,118.627598 C130.786598,128.734898 125.764798,135.442998 116.050198,138.231098 C106.196298,141.059098 96.1561984,141.441998 86.2637985,138.442498 C75.4298987,135.157398 70.6985988,126.868698 71.1591988,116.042498 C71.3978988,110.438298 72.9441988,105.390598 77.2974987,101.553898 C80.6105986,98.6334983 84.6187986,97.1487983 88.8586985,96.2282984 C92.8598984,95.3595984 96.9254983,95.0487984 101.014198,95.0438984 C106.210998,95.0368984 111.408498,94.9892984 116.603898,95.0767984 C118.043098,95.1012984 118.429498,94.6504984 118.346198,93.2721984 C118.180298,90.5239985 118.446998,87.7645985 118.143198,85.0107986 C117.678398,80.7939986 115.463598,77.9498987 111.534498,76.4798987 C107.076898,74.8131987 102.402998,74.7242987 97.7311983,74.8866987 C92.9613984,75.0518987 88.2223985,75.5418987 83.5463986,76.5771987 C80.1667986,77.3254987 78.5224987,76.0094987 78.3138987,72.5332988 C77.9778987,66.9339989 78.9060987,65.5178989 84.4528986,64.5490989 C94.5545984,62.7836989 104.696198,62.3776989 114.716698,65.0649989 C121.590698,66.9080989 127.046498,70.6432988 129.677798,77.6236987 C130.752998,80.4775986 131.193298,83.4490986 131.18638,86.4961985 C131.175098,91.6397984 131.183498,96.7833984 131.183498,101.926998 C131.163198,101.926298 131.143598,101.926298 131.123998,101.926298 Z M118.318898,111.874698 C118.318898,110.337498 118.236998,108.793298 118.344098,107.263098 C118.432298,106.007298 118.036798,105.630698 116.759998,105.645398 C111.140398,105.712598 105.518698,105.670598 99.8983983,105.676198 C97.7199983,105.678298 95.5618984,105.916998 93.4289984,106.348898 C87.4530985,107.557798 84.7482986,110.359898 84.1126986,115.965498 C83.4763986,121.588598 85.9221985,126.071398 91.0244984,127.601598 C98.0615983,129.712098 105.181298,129.416698 112.100798,126.958298 C115.775098,125.653498 117.630098,122.710698 118.098398,118.862798 C118.382598,116.536698 118.304198,114.204998 118.318898,111.874698 Z" id="Shape"></path>
                <path d="M337.396494,24.8100996 C337.396494,27.1928995 337.406994,29.5763995 337.393694,31.9591995 C337.381794,34.0990994 336.311494,35.2589994 334.224094,35.2673994 C329.352094,35.2876994 324.479394,35.2729994 319.607395,35.2260994 C317.785295,35.2078994 316.584095,34.1081994 316.559595,32.2629995 C316.493095,27.2334995 316.486795,22.2004996 316.572195,17.1709997 C316.605095,15.2186997 317.797195,14.2043998 319.765595,14.1938998 C324.531894,14.1672998 329.298894,14.1679998 334.065194,14.1917998 C336.313594,14.2029998 337.379694,15.2879997 337.392994,17.5006997 C337.406994,19.9373997 337.395794,22.3733996 337.396494,24.8100996 Z" id="Path"></path>
                <path d="M302.429395,6.99719988 C302.429395,5.40749991 302.406995,3.81709993 302.435695,2.22809996 C302.463695,0.678999988 303.116795,0.0468999992 304.677795,0.0412999993 C307.910395,0.0286999995 311.142295,0.0272999995 314.374895,0.0419999993 C315.917695,0.0489999992 316.616995,0.691599988 316.635895,2.23929996 C316.676495,5.47119991 316.674395,8.70379985 316.641495,11.9356998 C316.625395,13.4938998 315.850495,14.2834998 314.276895,14.3044998 C311.098195,14.3450998 307.918095,14.3373998 304.739395,14.2988998 C303.162995,14.2799998 302.434295,13.5057998 302.409795,11.9237998 C302.384595,10.2815998 302.404195,8.63869985 302.404195,6.99649988 C302.413295,6.99719988 302.421695,6.99719988 302.429395,6.99719988 Z" id="Path"></path>
            </g>
        </g>
    </g>
</svg>