<svg width="14" height="14" viewBox="0 0 14 14" xmlns="http://www.w3.org/2000/svg">
    <path d="M6.997 0a7 7 0 1 1 0 14 6.978 6.978 0 0 1-4.946-2.05A6.972 6.972 0 0 1 0 7c0-1.932.78-3.68 2.05-4.95A6.98 6.98 0 0 1 6.998 0zm3.57 6.618c.21 0 .376.172.376.382 0 .21-.167.382-.377.382H6.998a.382.382 0 0 1-.329-.194l-.005-.005-.006-.01v-.006l-.005-.011-.006-.01V7.14l-.005-.011-.005-.006v-.01l-.006-.011v-.006l-.005-.01V7.063l-.006-.006V2.443c0-.21.167-.377.377-.377s.382.167.382.377v4.175h3.187zm.844-4.03A6.221 6.221 0 0 0 6.997.764a6.22 6.22 0 0 0-4.413 1.824A6.239 6.239 0 0 0 .759 7c0 1.722.7 3.282 1.825 4.412a6.221 6.221 0 0 0 4.413 1.824 6.221 6.221 0 0 0 4.414-1.824A6.22 6.22 0 0 0 13.241 7a6.22 6.22 0 0 0-1.83-4.412z" fill="#418FDE" fill-rule="nonzero"/>
</svg>
