<svg width="19" height="19" viewBox="0 0 19 19" xmlns="http://www.w3.org/2000/svg">
    <path d="M9.5 0c2.538 0 4.923.988 6.718 2.782A9.438 9.438 0 0 1 19 9.5a9.438 9.438 0 0 1-2.782 6.718A9.438 9.438 0 0 1 9.5 19a9.438 9.438 0 0 1-6.718-2.782A9.438 9.438 0 0 1 0 9.5c0-2.538.988-4.923 2.782-6.718A9.438 9.438 0 0 1 9.5 0zm0 1.113c-4.624 0-8.387 3.763-8.387 8.387 0 4.624 3.763 8.387 8.387 8.387 4.624 0 8.387-3.763 8.387-8.387 0-4.624-3.763-8.387-8.387-8.387zm0 2.464c.307 0 .557.25.557.557v1.232h1.232a.557.557 0 0 1 0 1.113H8.904c-.68 0-1.232.553-1.232 1.232 0 .68.552 1.232 1.232 1.232h1.192a2.348 2.348 0 0 1 2.346 2.346 2.348 2.348 0 0 1-2.346 2.345h-.04v1.232a.557.557 0 0 1-1.113 0v-1.232H7.711a.557.557 0 0 1 0-1.113h2.385c.68 0 1.232-.553 1.232-1.232 0-.68-.552-1.232-1.232-1.232H8.904A2.348 2.348 0 0 1 6.558 7.71a2.348 2.348 0 0 1 2.346-2.345h.04V4.134c0-.307.249-.557.556-.557z" fill="#418FDE" fill-rule="nonzero"/>
</svg>
