<?xml version="1.0" encoding="UTF-8" standalone="no"?>
<svg
   id="Objects"
   viewBox="0 0 132 130"
   version="1.1"
   sodipodi:docname="first-buy.svg"
   inkscape:version="1.3 (0e150ed6c4, 2023-07-21)"
   xmlns:inkscape="http://www.inkscape.org/namespaces/inkscape"
   xmlns:sodipodi="http://sodipodi.sourceforge.net/DTD/sodipodi-0.dtd"
   xmlns="http://www.w3.org/2000/svg"
   xmlns:svg="http://www.w3.org/2000/svg">
  <sodipodi:namedview
     id="namedview1"
     pagecolor="#ffffff"
     bordercolor="#000000"
     borderopacity="0.25"
     inkscape:showpageshadow="2"
     inkscape:pageopacity="0.0"
     inkscape:pagecheckerboard="0"
     inkscape:deskcolor="#d1d1d1"
     showgrid="false"
     inkscape:zoom="4"
     inkscape:cx="102.875"
     inkscape:cy="121.875"
     inkscape:window-width="1908"
     inkscape:window-height="1311"
     inkscape:window-x="1419"
     inkscape:window-y="37"
     inkscape:window-maximized="0"
     inkscape:current-layer="Objects" />
  <defs
     id="defs1">
    <style
       id="style1">&#10;      .cls-1, .cls-2 {&#10;        fill: #3c3c3b;&#10;      }&#10;&#10;      .cls-2 {&#10;        font-family: Helvetica-Bold, Helvetica;&#10;        font-size: 37.47px;&#10;        font-weight: 700;&#10;      }&#10;&#10;      .cls-3 {&#10;        fill: #fff;&#10;        stroke: #3c3c3b;&#10;        stroke-miterlimit: 10;&#10;        stroke-width: 1.46px;&#10;      }&#10;    </style>
  </defs>
  <path
     class="cls-1"
     d="m 42.301308,52.488056 c 0,3.892882 3.488089,7.052844 7.755713,7.052844 4.267625,0 7.755714,-3.171977 7.755714,-7.052844 0,-3.039811 -2.113994,-5.635064 -5.086798,-6.620298 V 33.167835 c 0,-7.953973 7.121516,-14.430093 15.868163,-14.430093 8.746647,0 15.868163,6.47612 15.868163,14.430093 v 12.591787 c -3.144565,0.901131 -5.443534,3.58049 -5.443534,6.740451 0,3.89288 3.48809,7.052843 7.755714,7.052843 4.267623,0 7.755716,-3.171978 7.755716,-7.052843 0,-2.955706 -2.008296,-5.490885 -4.848975,-6.536195 V 33.17985 c 0,-10.58527 -9.46012,-19.188057 -21.100296,-19.188057 -11.640176,0 -21.100295,8.602787 -21.100295,19.188057 v 12.663878 c -3.025655,0.961204 -5.20571,3.580489 -5.20571,6.66836 z m 44.486347,-2.294875 c 1.387309,0 2.523581,1.033294 2.523581,2.294875 0,1.261583 -1.136272,2.294879 -2.523581,2.294879 -1.387308,0 -2.523579,-1.033296 -2.523579,-2.294879 0,-1.261581 1.136271,-2.294875 2.523579,-2.294875 z m -36.730634,0 c 1.387309,0 2.523579,1.033294 2.523579,2.294875 0,1.261583 -1.13627,2.294879 -2.523579,2.294879 -1.387307,0 -2.523578,-1.033296 -2.523578,-2.294879 0,-1.261581 1.136271,-2.294875 2.523578,-2.294875 z m 31.723112,-9.239585 c 0,-1.309642 -1.175908,-2.378982 -2.616067,-2.378982 H 57.892009 c -1.440158,0 -2.616066,1.06934 -2.616066,2.378982 0,1.309642 1.175908,2.378984 2.616066,2.378984 h 21.272057 c 1.440159,0 2.616067,-1.069342 2.616067,-2.378984 z m 33.599287,60.724134 -2.77461,-58.98195 c -0.0398,-2.282861 -2.08758,-4.121166 -4.59794,-4.121166 H 94.767983 c -1.440163,0 -2.61607,1.06934 -2.61607,2.378982 0,1.309642 1.175907,2.378984 2.61607,2.378984 h 12.631107 l 2.72177,57.86454 H 26.723821 l 2.721765,-57.86454 h 12.882147 c 1.440157,0 2.616066,-1.069342 2.616066,-2.378984 0,-1.309642 -1.175909,-2.378982 -2.616066,-2.378982 H 28.837814 c -2.510368,0 -4.558299,1.838305 -4.597936,4.121166 l -2.774616,58.98195 c 0,0 0,0.072 0,0.0961 0,2.3069 2.061143,4.18124 4.597935,4.18124 h 84.731493 c 2.5368,0 4.59794,-1.87434 4.59794,-4.18124 0,-0.0361 0,-0.0721 0,-0.0961 z"
     id="path1"
     style="fill:#616161;fill-opacity:1;stroke-width:1.25996" />
  <text
     class="cls-2"
     id="text1"
     x="56.705254"
     y="96.921883"
     transform="scale(1.0437531,0.95808098)"
     style="fill:#616161;fill-opacity:1;stroke-width:1.39727"><tspan
       x="56.705254"
       y="96.921883"
       id="tspan1"
       style="fill:#616161;fill-opacity:1;stroke-width:1.39727">1</tspan></text>
</svg>
