<svg viewBox="0 0 14 14" xmlns="http://www.w3.org/2000/svg">
    <path d="M7 0c1.87 0 3.628.728 4.95 2.05A6.954 6.954 0 0 1 14 7c0 1.87-.728 3.628-2.05 4.95A6.954 6.954 0 0 1 7 14a6.954 6.954 0 0 1-4.95-2.05A6.954 6.954 0 0 1 0 7c0-1.87.728-3.628 2.05-4.95A6.954 6.954 0 0 1 7 0zm0 .82A6.187 6.187 0 0 0 .82 7 6.187 6.187 0 0 0 7 13.18 6.187 6.187 0 0 0 13.18 7 6.187 6.187 0 0 0 7 .82zm0 1.816a.41.41 0 0 1 .41.41v.908h.908a.41.41 0 0 1 0 .82H6.561a.909.909 0 0 0 0 1.816h.878a1.73 1.73 0 0 1 1.728 1.728 1.73 1.73 0 0 1-1.728 1.728H7.41v.908a.41.41 0 0 1-.82 0v-.908h-.908a.41.41 0 0 1 0-.82H7.44a.909.909 0 0 0 0-1.816h-.878a1.73 1.73 0 0 1-1.728-1.728A1.73 1.73 0 0 1 6.56 3.954h.029v-.908a.41.41 0 0 1 .41-.41z" fill="#FFF" fill-rule="nonzero"/>
</svg>
