<svg width="18" height="19" viewBox="0 0 18 19" xmlns="http://www.w3.org/2000/svg">
    <path d="M4.5 6.333c2.523 0 4.5 2.087 4.5 4.75 0 2.734-2.428 5.799-3.611 7.13.129.055.224.177.236.333a.39.39 0 0 1-.346.424A9.77 9.77 0 0 1 4.5 19a.362.362 0 0 1-.257-.108l-.047-.048C3.708 18.347 0 14.458 0 11.084c0-2.664 1.977-4.75 4.5-4.75zM8.593 17.22a.411.411 0 0 1-.061.557c-.441.368-.959.656-1.54.856a.359.359 0 0 1-.116.019.378.378 0 0 1-.357-.273.4.4 0 0 1 .24-.5c.504-.172.931-.409 1.307-.723a.362.362 0 0 1 .527.064zM4.5 7.125c-2.103 0-3.75 1.739-3.75 3.958 0 2.714 2.864 6.009 3.75 6.963.886-.954 3.75-4.25 3.75-6.963 0-2.22-1.647-3.958-3.75-3.958zm5.68 7.141c.193.08.29.309.215.512-.18.491-.407 1.067-.722 1.61a.37.37 0 0 1-.32.19.358.358 0 0 1-.195-.059.409.409 0 0 1-.125-.544c.284-.49.494-1.024.662-1.483a.368.368 0 0 1 .485-.226zM4.5 8.708c1.24 0 2.25 1.066 2.25 2.375 0 1.31-1.01 2.375-2.25 2.375s-2.25-1.065-2.25-2.375S3.26 8.708 4.5 8.708zm7.49 2.849c.102.19.039.432-.14.54-.337.201-.603.546-.863 1.12a.374.374 0 0 1-.339.224.355.355 0 0 1-.162-.039.405.405 0 0 1-.175-.528c.205-.451.549-1.095 1.168-1.466a.364.364 0 0 1 .51.149zM4.5 9.5c-.827 0-1.5.71-1.5 1.583 0 .874.673 1.584 1.5 1.584s1.5-.71 1.5-1.584C6 10.21 5.327 9.5 4.5 9.5zm10.36.928a.41.41 0 0 1 .101.55c-.3.469-.791.748-1.496.85l-.198.025-.034.001a.384.384 0 0 1-.373-.36.39.39 0 0 1 .34-.43c.764-.072 1.017-.337 1.14-.53a.364.364 0 0 1 .52-.106zM15 0c1.654 0 3 1.42 3 3.167 0 1.516-2.131 4.587-2.626 5.28 0 .232 0 .46-.005.668a.385.385 0 0 1-.375.385h-.01a.387.387 0 0 1-.365-.406c.005-.203.005-.424.005-.65C14.126 7.747 12 4.681 12 3.167 12 1.42 13.346 0 15 0zm0 .792c-1.24 0-2.25 1.065-2.25 2.375 0 1.007 1.426 3.286 2.25 4.483.824-1.197 2.25-3.476 2.25-4.483 0-1.31-1.01-2.375-2.25-2.375zm0 1.583c.413 0 .75.355.75.792 0 .436-.337.791-.75.791s-.75-.355-.75-.791c0-.437.337-.792.75-.792z" fill="#418FDE" fill-rule="evenodd"/>
</svg>
