<?xml version="1.0" encoding="UTF-8"?>
<svg width="35px" height="18px" viewBox="0 0 35 18" version="1.1" xmlns="http://www.w3.org/2000/svg" xmlns:xlink="http://www.w3.org/1999/xlink">
    <title>logo</title>
    <defs>
        <polygon id="path-1" points="-3.82680828e-15 0 17.2019164 0 17.2019164 7.84158416 -3.82680828e-15 7.84158416"></polygon>
    </defs>
    <g id="Carrito" stroke="none" stroke-width="1" fill="none" fill-rule="evenodd">
        <g id="ftd_prime_carrito_web_v2_2" transform="translate(-648.000000, -421.000000)">
            <g id="logo" transform="translate(648.000000, 421.000000)">
                <g id="Icono" transform="translate(0.000000, 9.670699)" fill="#418FDE">
                    <path d="M35,0 L35,1.96270712 L30.8163333,1.96270712 L30.8163333,3.36110413 L34.0694667,3.36110413 L34.0694667,5.28147063 L30.8163333,5.28147063 L30.8163333,6.3665934 L35,6.3665934 L35,8.32930052 L28.7256667,8.32930052 L28.7256667,0 L35,0 Z M9.21783333,0.000231369459 C10.2412333,0.000462738918 10.8026333,0.0108743646 11.5882667,0.296384277 C12.7465333,0.7181708 13.4677667,1.61010006 13.4677667,2.84075421 C13.4677667,4.31827958 12.9787,4.89415816 12.6214667,5.29049404 C13.0659667,5.62806208 13.3667333,5.99362583 13.3667333,7.10188554 L13.3667333,8.32930052 L11.4732333,8.32930052 L11.4732333,7.41492841 C11.4732333,6.78074473 11.0558,6.10653412 10.2818333,6.10653412 L9.1021,6.10653412 L9.1021,8.32930052 L7.1386,8.32930052 L7.1386,0.000231369459 L9.21783333,0.000231369459 Z M19.9668,0 C21.4916333,0.00439601972 22.3468,0.0802852022 22.7208333,1.34402519 L22.7315667,1.37965608 C23.1091,0.10249667 23.863,0.00439601972 25.3883,0 L27.3805,0 L27.3805,8.32930052 L25.3883,8.32930052 L25.3883,1.9499818 C24.7037,1.80930917 23.73,2.04623149 23.73,3.58946578 L23.73,8.32930052 L21.6265,8.32930052 L21.6265,3.58946578 C21.6265,2.04623149 20.6537333,1.80930917 19.9668,1.9499818 L19.9668,8.32930052 L17.9741333,8.32930052 L17.9741333,0 L19.9668,0 Z M2.07923333,0.000231369459 C3.10286667,0.000462738918 3.66426667,0.0108743646 4.44966667,0.296384277 C5.60793333,0.7181708 6.32916667,1.61010006 6.32916667,2.84075421 C6.32916667,4.31827958 5.84033333,4.89415816 5.48286667,5.29049404 C5.48286667,5.29049404 4.7362,6.11416932 3.14323333,6.10653412 L1.96373333,6.10653412 L1.96373333,8.32930052 L0,8.32930052 L0,0.000231369459 L2.07923333,0.000231369459 Z M14.4846333,8.32513586 L16.4866333,8.32513586 L16.4866333,0.00717245322 L14.4846333,0.00717245322 L14.4846333,8.32513586 Z M9.1021,1.87848864 L9.1021,4.40365491 L10.0515333,4.40365491 C10.9265333,4.40365491 11.5028667,3.93837093 11.5028667,3.13598164 C11.5028667,2.51868793 11.0411,1.88473561 9.96473333,1.88473561 L9.7958,1.88450424 C9.49923333,1.8840415 9.2736,1.88219055 9.1021,1.87848864 L9.1021,1.87848864 Z M1.96373333,1.87848864 L1.96373333,4.40365491 L2.91293333,4.40365491 C3.78793333,4.40365491 4.3645,3.93837093 4.3645,3.13598164 C4.3645,2.51868793 3.90273333,1.88473561 2.82613333,1.88473561 L2.6572,1.88450424 C2.36063333,1.8840415 2.135,1.88219055 1.96373333,1.87848864 L1.96373333,1.87848864 Z" id="Fill-6"></path>
                </g>
                <g id="Group-6" transform="translate(2.502049, 0.000000)">
                    <g id="Group-3" transform="translate(13.131100, 0.000000)">
                        <mask id="mask-2" fill="white">
                            <use xlink:href="#path-1"></use>
                        </mask>
                        <g id="Clip-2"></g>
                        <path d="M-3.82680828e-15,0.565315794 L3.39248636,0.0160232399 C3.82873242,-0.0395946175 4.26928709,0.0501884951 4.64682843,0.272395078 C6.17153535,1.1702262 9.93240727,4.0009103 10.034198,4.00170484 C10.1599554,4.00276423 16.9594696,5.83020812 16.9594696,5.83020812 C16.9594696,5.83020812 17.2575711,6.02036822 17.1926728,6.41499016 C17.1490482,6.68222072 16.939273,6.89462797 16.681834,6.99023771 L13.7826827,7.71035654 C13.4530746,7.83271583 13.1129642,7.88065313 12.7690838,7.80596629 L0.0912885279,5.03381337 L-3.82680828e-15,0.565315794 Z" id="Fill-1" fill="#001E62" mask="url(#mask-2)"></path>
                    </g>
                    <path d="M0.0827914818,7.36192391 L0.0827914818,7.36192391 C0.209356698,7.57353661 0.456832087,7.68530202 0.702691751,7.64186712 L12.5063792,5.55195992 C12.9027707,5.48204033 13.3088565,5.48336456 13.7049787,5.55619747 L25.8751667,7.79945105 C26.1746146,7.85480406 26.4659839,7.67047059 26.5389609,7.37940381 C26.6143614,7.07959707 26.4312458,6.77581763 26.1274893,6.69715809 L20.6986494,5.2900263 C20.2548633,5.17508272 19.8347745,4.98465777 19.4572331,4.72775624 L13.4863171,0.661826019 C13.294315,0.531256477 13.0395688,0.533110406 12.849721,0.66685811 L7.52967334,4.41285323 C7.22349324,4.62843864 6.88069,4.78814134 6.51715162,4.88454563 L0.441482689,6.49799319 C0.0612484664,6.59889987 -0.117019986,7.02821676 0.0827914818,7.36192391" id="Fill-4" fill="#418FDE"></path>
                </g>
            </g>
        </g>
    </g>
</svg>