<?xml version="1.0" encoding="UTF-8"?>
<svg id="Objects" xmlns="http://www.w3.org/2000/svg" viewBox="0 0 132 129">
  <defs>
    <style>
      .cls-1 {
        fill: #3c3c3b;
      }

      .cls-2 {
        fill: #ffcbcd;
        stroke: #3c3c3b;
        stroke-miterlimit: 10;
        stroke-width: 1.46px;
      }
    </style>
  </defs>
  <circle class="cls-2" cx="64.81" cy="64.38" r="56.11" transform="translate(-1.66 1.71) rotate(-1.5)"/>
  <circle class="cls-1" cx="47.64" cy="49.3" r="5.39"/>
  <path class="cls-1" d="M88.75,89.53c-.51,.37-1.11,.55-1.69,.55-.9,0-1.79-.42-2.36-1.21-3.34-4.64-10.51-7.64-18.27-7.64s-14.93,3-18.27,7.64c-.94,1.3-2.75,1.6-4.06,.66-1.3-.94-1.6-2.75-.66-4.06,4.46-6.21,13.27-10.06,22.99-10.06s18.53,3.85,22.99,10.06c.94,1.3,.64,3.12-.66,4.06Z"/>
  <circle class="cls-1" cx="85.21" cy="49.3" r="5.39"/>
</svg>