<svg width="20" height="20" viewBox="0 0 20 20" xmlns="http://www.w3.org/2000/svg">
    <path d="m13.971 14.334.068.002c3.51.413 5.961 1.577 5.961 2.83C20 18.576 16.565 20 10 20c-6.565 0-10-1.425-10-2.833 0-1.254 2.451-2.418 5.961-2.831a.333.333 0 0 1 .078.662C2.534 15.41.667 16.522.667 17.167c0 .904 3.55 2.166 9.333 2.166s9.333-1.262 9.333-2.166c0-.645-1.867-1.757-5.372-2.17a.333.333 0 0 1 .078-.661zM9.941 0a6.35 6.35 0 0 1 4.52 1.873c2.234 2.234 2.512 6.437.594 8.994L9.94 18.252 4.82 10.856c-1.91-2.547-1.633-6.75.601-8.984A6.35 6.35 0 0 1 9.941 0zm0 .667a5.69 5.69 0 0 0-4.049 1.677c-2.016 2.016-2.265 5.812-.531 8.123l4.58 6.614 4.573-6.604c1.74-2.321 1.492-6.117-.524-8.133A5.69 5.69 0 0 0 9.94.667zM10 4a2.336 2.336 0 0 1 2.333 2.333A2.336 2.336 0 0 1 10 8.667a2.336 2.336 0 0 1-2.333-2.334A2.336 2.336 0 0 1 10 4zm0 .667c-.919 0-1.667.747-1.667 1.666C8.333 7.253 9.081 8 10 8s1.667-.748 1.667-1.667S10.919 4.667 10 4.667z" fill="#949494" fill-rule="nonzero"/>
</svg>
