<?xml version="1.0" encoding="UTF-8"?>
<svg width="31px" height="8px" viewBox="0 0 31 8" version="1.1" xmlns="http://www.w3.org/2000/svg" xmlns:xlink="http://www.w3.org/1999/xlink">
    <title>Group 6</title>
    <defs>
        <polygon id="path-1" points="-3.82680828e-15 0 17.2019164 0 17.2019164 7.84158416 -3.82680828e-15 7.84158416"></polygon>
    </defs>
    <g id="Carrito" stroke="none" stroke-width="1" fill="none" fill-rule="evenodd">
        <g id="ftd_prime_carrito_web_v2_2" transform="translate(-650.000000, -421.000000)">
            <g id="logo" transform="translate(648.000000, 421.000000)">
                <g id="Group-6" transform="translate(2.502049, 0.000000)">
                    <g id="Group-3" transform="translate(13.131100, 0.000000)">
                        <mask id="mask-2" fill="white">
                            <use xlink:href="#path-1"></use>
                        </mask>
                        <g id="Clip-2"></g>
                        <path d="M-3.82680828e-15,0.565315794 L3.39248636,0.0160232399 C3.82873242,-0.0395946175 4.26928709,0.0501884951 4.64682843,0.272395078 C6.17153535,1.1702262 9.93240727,4.0009103 10.034198,4.00170484 C10.1599554,4.00276423 16.9594696,5.83020812 16.9594696,5.83020812 C16.9594696,5.83020812 17.2575711,6.02036822 17.1926728,6.41499016 C17.1490482,6.68222072 16.939273,6.89462797 16.681834,6.99023771 L13.7826827,7.71035654 C13.4530746,7.83271583 13.1129642,7.88065313 12.7690838,7.80596629 L0.0912885279,5.03381337 L-3.82680828e-15,0.565315794 Z" id="Fill-1" fill="#001E62" mask="url(#mask-2)"></path>
                    </g>
                    <path d="M0.0827914818,7.36192391 L0.0827914818,7.36192391 C0.209356698,7.57353661 0.456832087,7.68530202 0.702691751,7.64186712 L12.5063792,5.55195992 C12.9027707,5.48204033 13.3088565,5.48336456 13.7049787,5.55619747 L25.8751667,7.79945105 C26.1746146,7.85480406 26.4659839,7.67047059 26.5389609,7.37940381 C26.6143614,7.07959707 26.4312458,6.77581763 26.1274893,6.69715809 L20.6986494,5.2900263 C20.2548633,5.17508272 19.8347745,4.98465777 19.4572331,4.72775624 L13.4863171,0.661826019 C13.294315,0.531256477 13.0395688,0.533110406 12.849721,0.66685811 L7.52967334,4.41285323 C7.22349324,4.62843864 6.88069,4.78814134 6.51715162,4.88454563 L0.441482689,6.49799319 C0.0612484664,6.59889987 -0.117019986,7.02821676 0.0827914818,7.36192391" id="Fill-4" fill="#418FDE"></path>
                </g>
            </g>
        </g>
    </g>
</svg>