<?xml version="1.0" encoding="UTF-8"?>
<svg width="555px" height="495px" viewBox="0 0 555 495" version="1.1" xmlns="http://www.w3.org/2000/svg" xmlns:xlink="http://www.w3.org/1999/xlink">
    <title>transfer</title>
    <defs>
        <polygon id="path-1" points="1.42108547e-14 0 447.523587 0 447.523587 298.24909 1.42108547e-14 298.24909"></polygon>
        <polygon id="path-3" points="0 0 447.523487 0 447.523487 298.24909 0 298.24909"></polygon>
    </defs>
    <g id="transfer" stroke="none" stroke-width="1" fill="none" fill-rule="evenodd">
        <g id="Group-7" transform="translate(21.000000, 13.000000)">
            <g id="Group-3" transform="translate(64.875413, 0.000000)">
                <mask id="mask-2" fill="white">
                    <use xlink:href="#path-1"></use>
                </mask>
                <g id="Clip-2"></g>
                <path d="M149.513287,170.930173 C149.513287,172.811173 149.513287,174.765173 149.513287,176.719173 C149.512287,197.005173 149.596287,217.291173 149.477287,237.576173 C149.405287,249.890173 141.343287,257.420173 130.350287,255.236173 C127.292287,254.629173 124.065287,252.828173 121.782287,250.663173 C82.9292868,213.816173 44.1792868,176.860173 5.49428683,139.837173 C-1.85671317,132.803173 -1.81871317,123.034173 5.53228683,115.996173 C44.0912868,79.0791733 82.7292868,42.2461733 121.349287,5.39317329 C126.604287,0.379173286 132.636287,-1.58582671 139.586287,1.42517329 C146.684287,4.50017329 149.522287,10.2891733 149.514287,17.7841733 C149.491287,38.2361733 149.510287,58.6881733 149.513287,79.1401733 C149.513287,80.9351733 149.513287,82.7301733 149.513287,85.2081733 C152.109287,85.2081733 154.209287,85.2011733 156.309287,85.2091733 C201.881287,85.3681733 247.474287,84.7461733 293.018287,85.9421733 C328.501287,86.8731733 359.963287,100.364173 387.244287,122.925173 C420.539287,150.460173 440.658287,185.870173 445.965287,228.707173 C448.241287,247.076173 447.367287,265.873173 447.319287,284.473173 C447.299287,292.424173 439.142287,298.529173 430.658287,298.239173 C422.662287,297.966173 415.784287,291.285173 415.625287,283.193173 C415.270287,265.171173 411.905287,247.809173 403.332287,231.881173 C382.867287,193.858173 350.856287,172.208173 307.744287,170.962173 C255.724287,169.458173 203.629287,170.562173 151.566287,170.549173 C151.083287,170.549173 150.600287,170.722173 149.513287,170.930173" id="Fill-1" fill="#616161" mask="url(#mask-2)"></path>
            </g>
            <g id="Group-6" transform="translate(0.000000, 170.574756)">
                <mask id="mask-4" fill="white">
                    <use xlink:href="#path-3"></use>
                </mask>
                <g id="Clip-5"></g>
                <path d="M298.0102,127.318917 C298.0102,125.437917 298.0102,123.483917 298.0102,121.529917 C298.0112,101.243917 297.9272,80.9579169 298.0462,60.6729169 C298.1182,48.3589169 306.1802,40.8289169 317.1732,43.0129169 C320.2312,43.6199169 323.4582,45.4199169 325.7412,47.5859169 C364.5942,84.4329169 403.3442,121.388917 442.0292,158.411917 C449.3802,165.445917 449.3422,175.214917 441.9912,182.252917 C403.4322,219.169917 364.7942,256.002917 326.1742,292.855917 C320.9192,297.869917 314.8872,299.834917 307.9372,296.823917 C300.8392,293.748917 298.0012,287.959917 298.0092,280.464917 C298.0322,260.012917 298.0132,239.560917 298.0102,219.108917 C298.0102,217.313917 298.0102,215.518917 298.0102,213.040917 C295.4142,213.040917 293.3142,213.047917 291.2142,213.039917 C245.6422,212.880917 200.0492,213.502917 154.5052,212.306917 C119.0222,211.375917 87.5602,197.884917 60.2792,175.323917 C26.9842,147.788917 6.8652,112.378917 1.5582,69.5409169 C-0.7178,51.1729169 0.1562,32.3759169 0.2042,13.7759169 C0.2242,5.82491685 8.3812,-0.280083146 16.8652,0.0099168535 C24.8612,0.282916854 31.7392,6.96391685 31.8982,15.0559169 C32.2532,33.0779169 35.6182,50.4399169 44.1912,66.3679169 C64.6562,104.390917 96.6672,126.040917 139.7792,127.286917 C191.7992,128.790917 243.8942,127.686917 295.9572,127.699917 C296.4402,127.699917 296.9232,127.526917 298.0102,127.318917" id="Fill-4" fill="#616161" mask="url(#mask-4)"></path>
            </g>
        </g>
    </g>
</svg>