<?xml version="1.0" encoding="UTF-8"?>
<svg width="668px" height="645px" viewBox="0 0 668 645" version="1.1" xmlns="http://www.w3.org/2000/svg" xmlns:xlink="http://www.w3.org/1999/xlink">
    <title>Group</title>
    <g id="Page-1" stroke="none" stroke-width="1" fill="none" fill-rule="evenodd">
        <g id="Group" transform="translate(0.666577, 0.196750)">
            <path d="M399.770089,25.25925 C361.880089,-8.41975 304.786756,-8.41975 266.896756,25.25925 L11.1884226,252.556583 C-2.57124408,264.786583 -3.81057741,285.856583 8.42008926,299.616583 C20.6507559,313.37325 41.7197559,314.61325 55.4790893,302.38325 L66.6670893,292.439917 L66.6670893,479.66325 C66.6654226,509.21325 66.6640893,534.67325 69.4050893,555.06325 C72.3427559,576.91325 78.9677559,597.859917 95.9564226,614.846583 C112.945089,631.836583 133.890089,638.459917 155.740756,641.399917 C176.129423,644.136583 201.589756,644.136583 231.139423,644.136583 L435.526756,644.136583 C465.076756,644.136583 490.536756,644.136583 510.926756,641.399917 C532.776756,638.459917 553.723423,631.836583 570.710089,614.846583 C587.700089,597.859917 594.323423,576.91325 597.263423,555.06325 C600.003423,534.67325 600.003423,509.21325 600.000089,479.666583 L600.000089,292.439917 L611.186756,302.38325 C624.946756,314.61325 646.016756,313.37325 658.246756,299.616583 C670.476756,285.856583 669.240089,264.786583 655.480089,252.556583 L399.770089,25.25925 Z" id="Shape" fill="#84D24C" fill-rule="nonzero"></path>
            <polyline id="Path" stroke="#FFFFFF" stroke-width="50" stroke-linecap="round" stroke-linejoin="round" points="213 420.915997 279.667 487.582997 454.205184 308"></polyline>
        </g>
    </g>
</svg>