<?xml version="1.0" encoding="UTF-8"?>
<svg width="667px" height="645px" viewBox="0 0 667 645" version="1.1" xmlns="http://www.w3.org/2000/svg" xmlns:xlink="http://www.w3.org/1999/xlink">
    <title>Group</title>
    <g id="Page-1" stroke="none" stroke-width="1" fill="none" fill-rule="evenodd">
        <g id="Group" fill-rule="nonzero">
            <path d="M399.770089,25.25925 C361.880089,-8.41975 304.786756,-8.41975 266.896756,25.25925 L11.1884226,252.556583 C-2.57124408,264.786583 -3.81057741,285.856583 8.42008926,299.616583 C20.6507559,313.37325 41.7197559,314.61325 55.4790893,302.38325 L66.6670893,292.439917 L66.6670893,479.66325 C66.6654226,509.21325 66.6640893,534.67325 69.4050893,555.06325 C72.3427559,576.91325 78.9677559,597.859917 95.9564226,614.846583 C112.945089,631.836583 133.890089,638.459917 155.740756,641.399917 C176.129423,644.136583 201.589756,644.136583 231.139423,644.136583 L435.526756,644.136583 C465.076756,644.136583 490.536756,644.136583 510.926756,641.399917 C532.776756,638.459917 553.723423,631.836583 570.710089,614.846583 C587.700089,597.859917 594.323423,576.91325 597.263423,555.06325 C600.003423,534.67325 600.003423,509.21325 600.000089,479.666583 L600.000089,292.439917 L611.186756,302.38325 C624.946756,314.61325 646.016756,313.37325 658.246756,299.616583 C670.476756,285.856583 669.240089,264.786583 655.480089,252.556583 L399.770089,25.25925 Z" id="Shape" fill="#CC0000"></path>
            <g id="wrong-delete-remove-trash-minus-cancel-close-2-svgrepo-com" transform="translate(175.000000, 243.000000)" fill="#FFFFFF">
                <path d="M191.602064,158 L309.209287,40.392777 C318.328971,31.0869674 318.253645,16.172789 309.040428,6.95957216 C299.827211,-2.25364466 284.913033,-2.32897072 275.607223,6.79071329 L158,124.397936 L40.392777,6.79071329 C31.0869674,-2.32897072 16.172789,-2.25364466 6.95957216,6.95957216 C-2.25364466,16.172789 -2.32897072,31.0869674 6.79071329,40.392777 L124.397936,158 L6.79071329,275.607223 C-2.32897072,284.913033 -2.25364466,299.827211 6.95957216,309.040428 C16.172789,318.253645 31.0869674,318.328971 40.392777,309.209287 L158,191.602064 L275.607223,309.209287 C284.913033,318.328971 299.827211,318.253645 309.040428,309.040428 C318.253645,299.827211 318.328971,284.913033 309.209287,275.607223 L191.602064,158 Z" id="Path"></path>
            </g>
        </g>
    </g>
</svg>